<svg width="566" height="440" version="1.1" xmlns="http://www.w3.org/2000/svg" desc="Created with imagetracer.js version 1.2.6" ><path fill="rgb(44,181,214)" stroke="rgb(44,181,214)" stroke-width="1" opacity="0.9921568627450981" d="M 241.5 25 L 263.5 25 L 278.5 28 Q 300.6 35.2 316 48 Q 314.9 50.7 317.5 50 L 338 71.5 Q 342 75.5 342 83.5 L 336.5 93 L 328.5 93 L 320.5 95 L 314 89.5 L 299.5 73 Q 289.4 63.6 275.5 58 L 264.5 55 L 249.5 54 L 248.5 55 L 236.5 56 L 215.5 65 Q 204.3 71.8 196 81.5 Q 188.5 90 184 101.5 L 182 108.5 L 182 113.5 L 177.5 120 Q 174.1 125.1 164.5 124 L 155 117.5 Q 151.5 113.5 153 104.5 Q 155.8 88.8 163 77.5 Q 173 60 188.5 48 Q 208.9 30.4 241.5 25 Z " /><path fill="rgb(44,181,214)" stroke="rgb(44,181,214)" stroke-width="1" opacity="0.9921568627450981" d="M 366.5 39 Q 371.3 37.8 372.5 40 L 374.5 40 L 382.5 40 L 401.5 45 Q 418 52 429 64.5 L 440 81.5 L 440 84.5 L 443 90.5 L 443 99.5 L 445 107.5 L 443 107.5 L 442.5 109 L 442 107.5 L 443 105.5 L 440 107.5 L 441 110.5 L 440 110.5 Q 440.7 107.9 438 109 L 438 105.5 L 436 104.5 L 434 111 L 432 111 L 432 107 L 430.5 107 L 428.5 106 L 423.5 109 Q 422 106.5 420.5 110 L 418 108.5 L 417.5 112 L 417 104.5 Q 413.7 101.3 414 94.5 L 406.5 83 Q 393.8 69.2 367.5 69 L 366.5 70 L 358.5 70 L 353 60.5 L 342 48.5 L 341 45.5 L 348.5 42 L 358.5 40 L 365.5 40 L 366.5 39 Z " /><path fill="rgb(44,181,214)" stroke="rgb(44,181,214)" stroke-width="1" opacity="0.9921568627450981" d="M 139.5 55 L 154.5 55 L 155 56.5 Q 144.4 68.3 140 85 L 125.5 88 L 115.5 92 Q 101.4 99.4 92 111.5 L 84 125.5 L 78 145.5 L 79 148 Q 75.7 146.7 77 151.5 L 75.5 159 L 72.5 157 L 66 156 Q 67.1 159.3 63 158 L 63 160.5 L 60.5 159 L 59.5 160 L 55.5 159 L 53.5 160 L 52.5 157 L 51.5 160 Q 47.1 156.7 49 148 Q 52.3 149.3 51 144.5 Q 48.5 143 50 137.5 L 56 115.5 L 63 101.5 Q 71.7 87.2 84.5 77 L 110.5 62 L 126.5 57 L 138.5 56 L 139.5 55 Z " /><path fill="rgb(44,181,214)" stroke="rgb(44,181,214)" stroke-width="1" opacity="0.9921568627450981" d="M 248.5 86 Q 281.4 86.6 297 104.5 L 297.5 108 L 298.5 106 L 301 110.5 L 299 110.5 L 298.5 112 L 296.5 112 Q 293.9 112.7 295 110 L 292 110 Q 293.7 114.1 289.5 113 L 286.5 112 L 283.5 116 L 274.5 115 L 273 118 Q 275.7 116.9 275 119.5 L 277.5 121 Q 278.8 118.8 280 121.5 Q 278.8 124.2 277.5 122 L 275.5 121 Q 274 123.5 272.5 120 L 268 119 L 267.5 115 L 266.5 117 L 265.5 115 L 264.5 117 L 262 115.5 L 261.5 117 L 257.5 115 L 255.5 115 Q 249.2 113.3 247.5 116 L 245.5 116 L 241.5 117 Q 240 114.5 238.5 118 L 233 120.5 Q 233.8 122.8 231.5 122 L 229.5 122 L 228 122.5 Q 230.3 123.7 227.5 125 L 225 123.5 L 226 125.5 L 225.5 128 L 221 126 L 222 130.5 L 218 133.5 L 221 129.5 L 219.5 129 L 218 129.5 L 219 127.5 L 216.5 127 L 211.5 130 L 208 128 L 207.5 126 L 205.5 129 L 201.5 127 L 199.5 130 L 199 128 Q 195.7 126.7 197 131.5 L 196 131.5 L 197 126 L 195 125.5 Q 200.5 108.5 213.5 99 L 229.5 90 L 248.5 86 Z M 271 116 L 270 119 L 271 119 L 271 116 Z " /><path fill="rgb(44,181,214)" stroke="rgb(44,181,214)" stroke-width="1" opacity="0.9921568627450981" d="M 304.5 115 Q 307.5 116.5 304.5 118 L 304.5 115 Z " /><path fill="rgb(0,0,0)" stroke="rgb(0,0,0)" stroke-width="1" opacity="0" d="M 0 0 L 566 0 L 566 440 L 0 440 L 0 0 Z M 248 23 L 247 24 L 229 26 L 226 28 L 222 28 L 217 30 L 204 36 L 188 47 Q 173 59 163 75 L 154 94 L 154 98 L 151 107 L 151 113 L 154 119 Q 156 124 163 125 Q 172 127 177 123 L 182 118 L 185 103 L 191 91 L 204 76 Q 206 77 205 74 L 225 62 L 242 56 L 264 56 Q 268 59 275 59 Q 288 65 299 74 L 312 90 L 320 96 L 338 94 Q 342 91 343 85 Q 344 77 341 74 L 330 59 L 329 59 L 313 44 Q 310 45 311 42 L 296 33 L 284 28 L 280 28 L 273 25 L 266 25 L 258 23 L 248 23 Z M 366 38 L 365 39 L 356 39 L 339 44 Q 337 49 341 48 L 353 64 L 358 72 L 363 71 L 380 71 Q 382 74 388 73 L 400 79 L 406 84 L 411 92 L 414 101 L 414 120 L 408 138 L 409 152 L 410 153 L 410 166 L 409 171 Q 411 173 418 172 L 422 174 Q 425 175 426 173 Q 425 170 428 171 L 435 156 Q 437 158 443 157 L 458 166 L 468 179 L 473 190 L 475 201 L 475 217 L 473 227 L 468 238 L 463 244 L 448 255 L 431 259 L 417 258 L 408 255 L 406 253 L 381 269 L 378 269 L 367 285 L 364 293 Q 365 300 362 304 L 362 312 L 364 319 L 364 324 L 373 341 Q 372 343 375 342 L 378 347 L 380 350 Q 397 368 423 377 Q 430 378 434 375 L 440 368 Q 439 363 441 362 L 440 355 L 438 352 L 434 347 L 418 339 L 411 333 L 408 331 Q 399 324 395 314 L 395 302 L 398 295 L 405 288 L 418 291 L 438 291 L 458 286 L 473 278 L 484 269 L 496 254 L 501 244 L 507 223 L 507 194 L 504 181 L 495 161 L 484 146 Q 481 147 482 144 L 467 133 L 452 126 L 446 125 L 446 118 L 447 117 L 447 106 L 446 105 L 445 92 L 439 77 L 432 66 L 415 50 L 403 44 L 386 39 L 366 38 Z M 149 53 L 148 54 L 136 54 L 130 56 L 125 56 L 112 61 L 109 61 L 97 67 L 84 76 Q 69 88 59 106 L 53 120 L 48 141 L 48 168 Q 51 171 50 179 Q 56 202 70 218 L 72 221 L 82 229 L 83 228 L 84 217 L 87 206 L 93 195 L 84 179 L 80 162 L 80 147 L 82 136 L 88 121 L 95 111 Q 110 91 140 87 L 149 68 L 156 59 L 157 54 L 155 53 L 152 54 L 149 53 Z M 245 85 L 228 89 L 214 97 L 205 104 L 193 124 L 187 145 L 187 173 L 190 182 L 190 186 Q 197 208 210 224 L 226 239 L 227 239 Q 228 242 225 241 L 208 266 Q 199 278 183 282 L 167 282 L 160 280 L 145 271 L 135 261 L 132 254 L 130 244 Q 129 226 135 216 Q 139 208 148 205 L 153 203 L 166 202 L 171 199 L 176 190 L 175 181 L 171 174 L 166 171 Q 148 169 138 174 L 126 180 L 115 188 L 104 205 L 98 226 L 98 250 L 101 263 L 107 277 L 117 289 Q 119 288 118 291 L 139 306 L 151 311 L 163 314 L 189 314 L 204 309 L 221 299 L 233 287 Q 242 270 255 258 L 280 267 Q 286 266 289 269 L 298 269 L 299 270 L 311 270 L 312 271 L 338 268 L 361 261 Q 386 250 405 233 L 409 227 L 415 223 Q 414 220 417 221 L 422 215 Q 421 212 424 213 L 429 203 L 429 199 L 426 192 L 419 185 Q 407 183 403 187 L 396 196 Q 380 214 359 226 L 337 235 L 332 235 L 322 238 L 300 238 L 281 234 L 264 227 L 251 218 L 231 198 L 225 188 L 219 168 L 219 150 Q 222 147 221 142 L 230 126 L 236 121 L 243 118 L 261 118 L 275 125 L 281 134 Q 284 139 283 148 L 286 154 Q 290 158 297 160 L 302 160 L 311 156 L 315 149 L 328 141 L 337 139 L 350 140 L 361 146 L 365 155 L 364 167 L 358 176 L 340 187 L 321 192 L 307 193 L 293 196 L 287 199 L 278 201 L 272 205 L 273 207 Q 287 219 306 226 L 328 224 L 331 222 L 336 222 L 347 219 L 365 211 L 381 199 L 392 184 L 398 163 L 398 154 L 395 142 L 389 131 L 387 128 Q 380 118 370 113 L 351 107 L 330 107 L 318 110 L 307 115 L 302 108 Q 303 105 300 106 L 299 103 Q 296 104 297 101 L 277 89 L 259 85 L 245 85 Z M 255 283 L 244 298 L 236 306 L 236 309 Q 283 332 321 365 Q 323 364 322 367 L 324 367 L 333 377 Q 332 379 335 378 L 345 394 Q 349 399 357 401 Q 365 401 369 397 L 374 389 L 373 377 L 361 361 Q 362 358 359 359 L 359 358 L 344 342 Q 341 343 342 341 L 327 328 Q 324 329 325 327 L 280 295 L 259 283 L 255 283 Z " /><path fill="rgb(98,166,182)" stroke="rgb(98,166,182)" stroke-width="1" opacity="0.27450980392156865" d="M 240.5 24 L 263.5 24 L 270 25.5 L 264.5 26 L 263.5 25 L 241.5 25 L 236.5 26 L 236.5 25 L 240.5 24 Z " /><path fill="rgb(98,166,182)" stroke="rgb(98,166,182)" stroke-width="1" opacity="0.27450980392156865" d="M 232.5 26 L 235 26.5 L 232.5 27 L 232.5 26 Z " /><path fill="rgb(98,166,182)" stroke="rgb(98,166,182)" stroke-width="1" opacity="0.27450980392156865" d="M 271.5 26 L 274 26.5 L 271.5 27 L 271.5 26 Z " /><path fill="rgb(98,166,182)" stroke="rgb(98,166,182)" stroke-width="1" opacity="0.27450980392156865" d="M 227.5 27 L 230 27.5 L 227.5 28 L 227.5 27 Z " /><path fill="rgb(98,166,182)" stroke="rgb(98,166,182)" stroke-width="1" opacity="0.27450980392156865" d="M 275.5 27 L 278 27.5 L 275.5 28 L 275.5 27 Z " /><path fill="rgb(98,166,182)" stroke="rgb(98,166,182)" stroke-width="1" opacity="0.27450980392156865" d="M 223.5 28 L 226 28.5 L 221.5 30 L 221.5 29 L 223.5 28 Z " /><path fill="rgb(98,166,182)" stroke="rgb(98,166,182)" stroke-width="1" opacity="0.27450980392156865" d="M 279.5 28 L 284 29.5 L 282.5 30 L 279.5 29 L 279.5 28 Z " /><path fill="rgb(98,166,182)" stroke="rgb(98,166,182)" stroke-width="1" opacity="0.27450980392156865" d="M 218.5 30 L 220 30.5 Q 204.4 35.4 193.5 45 L 193 43 L 210.5 33 L 218.5 30 Z " /><path fill="rgb(98,166,182)" stroke="rgb(98,166,182)" stroke-width="1" opacity="0.27450980392156865" d="M 288.5 31 L 309.5 42 L 329 59.5 L 340 72.5 L 341 75.5 L 340 75.5 Q 330 59.5 315.5 48 Q 304.2 37.8 288.5 32 L 288.5 31 Z " /><path fill="rgb(98,166,182)" stroke="rgb(98,166,182)" stroke-width="1" opacity="0.27450980392156865" d="M 366.5 38 L 369 38.5 Q 365.9 40.9 359.5 40 L 359.5 39 Q 365 40.5 366.5 38 Z " /><path fill="rgb(98,166,182)" stroke="rgb(98,166,182)" stroke-width="1" opacity="0.27450980392156865" d="M 373.5 38 L 382 39.5 L 374.5 40 L 373.5 38 Z " /><path fill="rgb(98,166,182)" stroke="rgb(98,166,182)" stroke-width="1" opacity="0.27450980392156865" d="M 351.5 40 L 352.5 42 L 346.5 43 L 346.5 42 L 351.5 40 Z " /><path fill="rgb(98,166,182)" stroke="rgb(98,166,182)" stroke-width="1" opacity="0.27450980392156865" d="M 354.5 40 L 358 40.5 L 354.5 41 L 354.5 40 Z " /><path fill="rgb(98,166,182)" stroke="rgb(98,166,182)" stroke-width="1" opacity="0.27450980392156865" d="M 383.5 40 L 387 40.5 L 383.5 41 L 383.5 40 Z " /><path fill="rgb(98,166,182)" stroke="rgb(98,166,182)" stroke-width="1" opacity="0.27450980392156865" d="M 388.5 41 Q 393.3 40.3 395 42.5 L 392.5 43 L 388.5 42 L 388.5 41 Z " /><path fill="rgb(98,166,182)" stroke="rgb(98,166,182)" stroke-width="1" opacity="0.27450980392156865" d="M 396.5 43 L 401 44.5 L 399.5 45 L 396.5 44 L 396.5 43 Z " /><path fill="rgb(98,166,182)" stroke="rgb(98,166,182)" stroke-width="1" opacity="0.27450980392156865" d="M 340.5 44 L 342 44.5 L 341 46.5 L 353 60.5 L 358.5 70 L 373.5 69 L 391.5 73 Q 401.3 77.3 408 84.5 Q 417.4 94.6 416 115.5 L 414 125.5 L 409 138.5 L 409 142.5 L 411 147.5 Q 409.3 155.7 412 159.5 L 411 160.5 L 411 171 L 419 171.5 L 411.5 172 L 410 170.5 L 410 147.5 Q 407.3 144.2 408 137.5 L 413 125.5 L 413 120.5 L 415 114.5 L 415 105.5 L 411 90.5 L 405.5 84 Q 403.3 84.8 404 82.5 L 398 79 Q 399.1 76.3 396.5 77 L 391.5 74 L 380.5 71 L 357 71 L 353 62.5 L 341 47 Q 338.3 48.1 339 45.5 L 340.5 44 Z " /><path fill="rgb(98,166,182)" stroke="rgb(98,166,182)" stroke-width="1" opacity="0.27450980392156865" d="M 191.5 45 L 189.5 48 L 191.5 45 Z " /><path fill="rgb(98,166,182)" stroke="rgb(98,166,182)" stroke-width="1" opacity="0.27450980392156865" d="M 404.5 46 L 411.5 49 L 425 58 L 433 67.5 L 438 76.5 L 436 75.5 Q 430.8 64.2 421.5 57 L 404.5 47 L 404.5 46 Z " /><path fill="rgb(98,166,182)" stroke="rgb(98,166,182)" stroke-width="1" opacity="0.27450980392156865" d="M 187.5 48 L 171 65.5 Q 161 78 155.5 95 L 155 92.5 Q 164.4 67.9 182.5 52 L 187.5 48 Z " /><path fill="rgb(98,166,182)" stroke="rgb(98,166,182)" stroke-width="1" opacity="0.27450980392156865" d="M 145.5 54 L 155.5 54 L 157 55.5 Q 146 68.2 141 86 L 129.5 88 L 129.5 87 L 140 85 L 144 73.5 L 155 55 L 145.5 55 L 145.5 54 Z " /><path fill="rgb(98,166,182)" stroke="rgb(98,166,182)" stroke-width="1" opacity="0.27450980392156865" d="M 249.5 54 L 257 54.5 L 249.5 55 L 249.5 54 Z " /><path fill="rgb(98,166,182)" stroke="rgb(98,166,182)" stroke-width="1" opacity="0.27450980392156865" d="M 131.5 55 L 139 55.5 L 127.5 57 L 127.5 56 L 131.5 55 Z " /><path fill="rgb(98,166,182)" stroke="rgb(98,166,182)" stroke-width="1" opacity="0.27450980392156865" d="M 241.5 55 L 248 55.5 L 236.5 57 L 236.5 56 L 241.5 55 Z " /><path fill="rgb(98,166,182)" stroke="rgb(98,166,182)" stroke-width="1" opacity="0.27450980392156865" d="M 259.5 55 L 269 56 L 268.5 58 Q 265.8 55.2 259.5 56 L 259.5 55 Z " /><path fill="rgb(98,166,182)" stroke="rgb(98,166,182)" stroke-width="1" opacity="0.27450980392156865" d="M 122.5 57 L 126 57.5 L 114.5 61 L 114.5 60 L 122.5 57 Z " /><path fill="rgb(98,166,182)" stroke="rgb(98,166,182)" stroke-width="1" opacity="0.27450980392156865" d="M 233.5 57 L 235 57.5 L 215.5 66 L 199 79.5 Q 187.9 90.9 183 108.5 L 184 110.5 Q 182.1 120.1 174.5 124 L 163.5 125 L 155 119.5 L 152 113.5 L 152 105.5 L 153 105.5 L 153 113.5 L 159.5 122 Q 163.1 124.9 170.5 124 L 180 117.5 L 182 113.5 L 182 108.5 L 184 101.5 L 190 89.5 L 204.5 73 Q 216.4 62.4 233.5 57 Z " /><path fill="rgb(98,166,182)" stroke="rgb(98,166,182)" stroke-width="1" opacity="0.27450980392156865" d="M 270.5 57 L 275.5 58 L 287.5 64 Q 299.7 71.8 309 82.5 L 317.5 93 L 322.5 95 L 326.5 94 L 326.5 95 L 319.5 96 L 316 94 L 300.5 75 L 287.5 65 L 270.5 58 L 270.5 57 Z " /><path fill="rgb(98,166,182)" stroke="rgb(98,166,182)" stroke-width="1" opacity="0.27450980392156865" d="M 112.5 60 L 113 62 Q 86.1 70.8 70 91.5 L 63.5 101 L 64 99.5 L 65 96.5 L 78.5 81 L 86 76 Q 84.9 73.3 87.5 74 L 99.5 66 L 112.5 60 Z " /><path fill="rgb(98,166,182)" stroke="rgb(98,166,182)" stroke-width="1" opacity="0.27450980392156865" d="M 341.5 77 Q 343.8 78.8 343 83.5 Q 341.9 90.9 336.5 94 L 328 93.5 L 336.5 93 L 339 90.5 L 342 83.5 L 342 79.5 L 341.5 77 Z " /><path fill="rgb(98,166,182)" stroke="rgb(98,166,182)" stroke-width="1" opacity="0.27450980392156865" d="M 438.5 78 L 444 89.5 L 447 106.5 L 447 115.5 L 445 125 Q 471.8 131.5 487 150.5 L 489 153.5 Q 498.3 162.7 502 177.5 L 501 177.5 L 498 168.5 L 485 149 Q 482.3 150.1 483 147.5 Q 468.3 131.5 444 126 L 445 121.5 L 445 99.5 L 438.5 78 Z " /><path fill="rgb(98,166,182)" stroke="rgb(98,166,182)" stroke-width="1" opacity="0.27450980392156865" d="M 245.5 85 L 248 85.5 L 247.5 87 L 240.5 87 L 225.5 92 L 225.5 91 L 245.5 85 Z " /><path fill="rgb(98,166,182)" stroke="rgb(98,166,182)" stroke-width="1" opacity="0.27450980392156865" d="M 255 85 L 271 88.5 L 268.5 89 Q 263.6 85.7 255 87 L 255 85 Z " /><path fill="rgb(98,166,182)" stroke="rgb(98,166,182)" stroke-width="1" opacity="0.27450980392156865" d="M 125.5 88 L 128 88.5 L 123.5 90 L 123.5 89 L 125.5 88 Z " /><path fill="rgb(98,166,182)" stroke="rgb(98,166,182)" stroke-width="1" opacity="0.27450980392156865" d="M 272.5 88 L 279 91.5 L 277.5 92 L 272 90 L 272.5 88 Z " /><path fill="rgb(98,166,182)" stroke="rgb(98,166,182)" stroke-width="1" opacity="0.27450980392156865" d="M 120.5 90 L 122 90.5 L 102 102 L 102 104 L 100 104 Q 101.1 106.7 98.5 106 L 87 121.5 L 80 143.5 L 80 145.5 L 80 162.5 L 81 163.5 L 80 165.5 L 85 181.5 L 91 190.5 L 92 195.5 L 86 207.5 L 86 211.5 L 83 220.5 L 83 228 L 79 228 L 79 226.5 L 68 215.5 L 56 194.5 L 51 180.5 Q 51.6 174.4 49 171.5 L 49 163.5 L 50 163.5 L 51 175.5 L 58 196.5 L 70 216.5 L 80.5 227 Q 83.5 227.5 82 220.5 L 85 207.5 L 91 193.5 Q 78.4 178.1 78 150.5 L 79 149.5 L 80 137.5 L 88 117.5 Q 94.5 106.5 104.5 99 L 120.5 90 Z " /><path fill="rgb(98,166,182)" stroke="rgb(98,166,182)" stroke-width="1" opacity="0.27450980392156865" d="M 280.5 91 L 293.5 99 L 303 108.5 L 307.5 116 L 311.5 113 L 325.5 108 L 342.5 107 L 342.5 108 Q 320 107.5 307.5 117 L 291.5 99 L 280 93 L 280.5 91 Z " /><path fill="rgb(98,166,182)" stroke="rgb(98,166,182)" stroke-width="1" opacity="0.27450980392156865" d="M 223.5 92 L 222.5 94 Q 210.3 99.3 203 109.5 L 194 124.5 L 189.5 141 L 189 135.5 L 197 116.5 Q 202.3 106.8 210.5 100 L 223.5 92 Z " /><path fill="rgb(98,166,182)" stroke="rgb(98,166,182)" stroke-width="1" opacity="0.27450980392156865" d="M 154.5 96 L 155 98.5 L 153.5 104 L 153 98.5 L 154.5 96 Z " /><path fill="rgb(98,166,182)" stroke="rgb(98,166,182)" stroke-width="1" opacity="0.27450980392156865" d="M 62.5 102 L 62 103.5 Q 51.6 120.1 49.5 145 L 49 135.5 L 55 115.5 L 62.5 102 Z " /><path fill="rgb(98,166,182)" stroke="rgb(98,166,182)" stroke-width="1" opacity="0.27450980392156865" d="M 349.5 107 L 361.5 110 L 372.5 115 L 387 127.5 L 395 141.5 L 393 142 L 390 133.5 L 383 124 L 363.5 112 L 353.5 109 L 347 108.5 L 349.5 107 Z " /><path fill="rgb(98,166,182)" stroke="rgb(98,166,182)" stroke-width="1" opacity="0.27450980392156865" d="M 245.5 116 Q 269.5 114.5 279 127.5 Q 284 132.5 284 142.5 L 283 142.5 L 282 134.5 L 277 126 L 265.5 119 Q 259.8 119.7 257.5 117 L 245.5 117 Q 234.3 119.8 228 127.5 L 220 143.5 L 220 145.5 Q 217.2 154.2 219 167.5 L 224 185.5 L 230 196.5 L 238 207 L 241 208.5 L 241 210 L 243 210 Q 241.9 212.7 244.5 212 L 252 218 Q 250.9 220.7 253.5 220 L 271.5 231 L 287.5 236 L 298.5 237 L 299.5 238 L 321.5 238 L 328.5 236 L 330.5 236 L 341.5 234 L 361.5 225 Q 380 214 394 198.5 L 401.5 188 Q 406.3 183.3 417.5 185 L 423 188.5 Q 429 192.5 428 203.5 L 425 210.5 Q 417.8 216.1 414 224 Q 411.3 222.9 412 225.5 L 389.5 244 L 392.5 240 L 407 228.5 L 407 227 L 409 227 Q 407.9 224.3 410.5 225 L 425 208.5 L 427 198.5 Q 425.9 191.1 420.5 188 Q 416.8 184.7 408.5 186 L 400 191.5 L 398 195.5 L 379.5 214 Q 365.4 225.4 347.5 233 L 324.5 239 L 306.5 240 L 305.5 239 L 295.5 239 L 282.5 236 L 264.5 229 Q 246.7 218.8 234 203.5 Q 225.8 193.7 221 180.5 L 218 167.5 L 218 148.5 L 222 134.5 L 230.5 123 Q 236.2 117.7 245.5 116 Z " /><path fill="rgb(98,166,182)" stroke="rgb(98,166,182)" stroke-width="1" opacity="0.27450980392156865" d="M 332.5 138 Q 355.8 135.7 364 148.5 L 367 157.5 L 366 160.5 L 366 164.5 L 364 169.5 L 354.5 180 L 354 178.5 L 359 174.5 L 365 163.5 L 365 152.5 L 361 146 L 353.5 141 L 346.5 139 L 344.5 139 L 333.5 139 L 326.5 141 Q 317.8 145.3 312 152.5 L 308.5 157 Q 303.8 160.8 293.5 159 L 288 156 L 288 154 Q 285.3 155.1 286 152.5 Q 283.4 151.1 284 146.5 L 285 146.5 L 285 149.5 L 290.5 156 Q 294.5 159.5 303.5 158 L 311 154 L 318.5 145 L 332.5 138 Z " /><path fill="rgb(98,166,182)" stroke="rgb(98,166,182)" stroke-width="1" opacity="0.27450980392156865" d="M 188.5 143 L 189 147.5 L 188 148.5 L 188 168.5 Q 190.2 169.7 189 174.5 L 188 174.5 L 187 169.5 L 187 147.5 L 188.5 143 Z " /><path fill="rgb(98,166,182)" stroke="rgb(98,166,182)" stroke-width="1" opacity="0.27450980392156865" d="M 394.5 143 L 397 149.5 L 397 167.5 L 394.5 174 L 394 171.5 L 396 166.5 L 396 149.5 L 394.5 143 Z " /><path fill="rgb(98,166,182)" stroke="rgb(98,166,182)" stroke-width="1" opacity="0.27450980392156865" d="M 48.5 148 L 49 159.5 L 48 159.5 L 48.5 148 Z " /><path fill="rgb(98,166,182)" stroke="rgb(98,166,182)" stroke-width="1" opacity="0.27450980392156865" d="M 435.5 154 L 442 156.5 L 439.5 157 L 435 156 L 426 173 L 423.5 174 L 420 172.5 L 422.5 172 L 423.5 173 L 428 168.5 L 435.5 154 Z " /><path fill="rgb(98,166,182)" stroke="rgb(98,166,182)" stroke-width="1" opacity="0.27450980392156865" d="M 443.5 157 Q 458 162 466 173.5 L 468 176.5 L 464 173.5 L 456.5 165 L 443.5 158 L 443.5 157 Z " /><path fill="rgb(98,166,182)" stroke="rgb(98,166,182)" stroke-width="1" opacity="0.27450980392156865" d="M 148.5 171 L 149 173 Q 126.2 176.4 114 191.5 Q 106.5 200.5 102.5 213 L 102 210.5 Q 108.1 193.1 121.5 183 L 132.5 176 L 148.5 171 Z " /><path fill="rgb(98,166,182)" stroke="rgb(98,166,182)" stroke-width="1" opacity="0.27450980392156865" d="M 151.5 171 Q 168.3 168.2 173 177.5 L 176 187.5 Q 174.3 196.8 167.5 201 L 161.5 202 L 161.5 201 L 164.5 201 L 171 196.5 Q 175.9 192.4 174 181.5 L 169.5 175 L 164.5 172 L 151.5 172 L 151.5 171 Z " /><path fill="rgb(98,166,182)" stroke="rgb(98,166,182)" stroke-width="1" opacity="0.27450980392156865" d="M 393.5 175 L 394 177.5 Q 387.9 192.4 376.5 202 L 360.5 213 L 345.5 219 L 324.5 224 L 306.5 226 L 296 220.5 L 297.5 221 L 306.5 225 L 307.5 224 L 316.5 224 L 333.5 221 L 357.5 213 Q 374.1 205.1 385 191.5 L 393.5 175 Z " /><path fill="rgb(98,166,182)" stroke="rgb(98,166,182)" stroke-width="1" opacity="0.27450980392156865" d="M 189.5 176 L 191 183.5 L 190 183.5 L 188 177.5 L 189.5 176 Z " /><path fill="rgb(98,166,182)" stroke="rgb(98,166,182)" stroke-width="1" opacity="0.27450980392156865" d="M 502.5 179 L 504 184.5 L 503 184.5 L 502.5 179 Z " /><path fill="rgb(98,166,182)" stroke="rgb(98,166,182)" stroke-width="1" opacity="0.27450980392156865" d="M 351.5 180 L 353 180.5 L 348.5 184 L 334.5 190 L 322.5 193 L 302.5 195 L 302.5 194 L 327.5 191 Q 341.6 187.6 351.5 180 Z " /><path fill="rgb(98,166,182)" stroke="rgb(98,166,182)" stroke-width="1" opacity="0.27450980392156865" d="M 469.5 180 L 473 187.5 L 471 186.5 L 469.5 180 Z " /><path fill="rgb(98,166,182)" stroke="rgb(98,166,182)" stroke-width="1" opacity="0.27450980392156865" d="M 191.5 185 Q 201.4 218.1 225.5 237 L 229 239.5 L 210 265.5 L 199.5 276 L 194.5 279 L 195.5 277 L 207 267.5 L 222 245 Q 224.7 246.1 224 243.5 L 227 239.5 L 223 236.5 L 220.5 233 L 213 226.5 L 211 223.5 L 200 208.5 Q 193 198.4 191.5 185 Z " /><path fill="rgb(98,166,182)" stroke="rgb(98,166,182)" stroke-width="1" opacity="0.27450980392156865" d="M 504.5 186 L 507 196 Q 503 197.4 505 190.5 L 504.5 186 Z " /><path fill="rgb(98,166,182)" stroke="rgb(98,166,182)" stroke-width="1" opacity="0.27450980392156865" d="M 473.5 189 L 475 195.5 L 474 195.5 L 473.5 189 Z " /><path fill="rgb(98,166,182)" stroke="rgb(98,166,182)" stroke-width="1" opacity="0.27450980392156865" d="M 297.5 195 L 301 195.5 L 287.5 199 L 287.5 198 L 297.5 195 Z " /><path fill="rgb(98,166,182)" stroke="rgb(98,166,182)" stroke-width="1" opacity="0.27450980392156865" d="M 474 197 L 476 197.5 L 476 219.5 L 474.5 224 L 474 217.5 L 475 216.5 L 475 199.5 L 474 197 Z " /><path fill="rgb(98,166,182)" stroke="rgb(98,166,182)" stroke-width="1" opacity="0.27450980392156865" d="M 506.5 197 L 507 218.5 L 506 219.5 L 505 230.5 L 501 243.5 L 493 258 Q 490.3 256.9 491 259.5 L 490 262 Q 487.3 260.9 488 263.5 L 471.5 278 L 458.5 285 L 441.5 290 Q 432.6 288.6 427.5 291 L 427.5 290 L 444.5 288 L 459.5 283 Q 477.7 275.2 489 260.5 Q 499.2 248.2 504 230.5 L 505 219.5 L 506 218.5 L 506.5 197 Z " /><path fill="rgb(98,166,182)" stroke="rgb(98,166,182)" stroke-width="1" opacity="0.27450980392156865" d="M 284.5 199 L 286 199.5 L 274 204 L 275.5 207 L 295 219.5 L 293.5 220 L 277.5 210 L 273 205.5 L 274.5 203 L 284.5 199 Z " /><path fill="rgb(98,166,182)" stroke="rgb(98,166,182)" stroke-width="1" opacity="0.27450980392156865" d="M 153.5 202 L 160 202.5 L 153.5 203 L 153.5 202 Z " /><path fill="rgb(98,166,182)" stroke="rgb(98,166,182)" stroke-width="1" opacity="0.27450980392156865" d="M 149.5 203 L 151 203.5 L 143.5 207 L 136 213 L 131 224.5 L 130 243.5 L 133 256.5 Q 136.5 265.5 143.5 271 Q 153 279 167 282.5 L 164.5 283 Q 145.1 277.9 135 263.5 L 129 247.5 L 129 229.5 L 133 216.5 L 141.5 207 L 149.5 203 Z " /><path fill="rgb(98,166,182)" stroke="rgb(98,166,182)" stroke-width="1" opacity="0.27450980392156865" d="M 101.5 214 L 102 216.5 Q 99.1 220.4 100 227 L 98 226.5 L 101.5 214 Z " /><path fill="rgb(98,166,182)" stroke="rgb(98,166,182)" stroke-width="1" opacity="0.27450980392156865" d="M 473.5 225 L 474 227.5 Q 468.9 241.4 458.5 250 L 440.5 259 L 435.5 260 L 418.5 260 L 403.5 255 Q 391.8 266 376 272 L 368 286.5 L 365 295.5 L 365 300 L 363 299.5 L 367 285.5 L 371 277.5 L 377.5 270 Q 391.7 264.7 401.5 255 L 406.5 254 L 419.5 259 L 434.5 259 Q 455.3 254.8 466 240.5 Q 471.3 234.3 473.5 225 Z " /><path fill="rgb(98,166,182)" stroke="rgb(98,166,182)" stroke-width="1" opacity="0.27450980392156865" d="M 98.5 232 Q 98.4 253.6 105 268.5 Q 112.6 285.9 127 296.5 L 123.5 294 L 115 286.5 Q 105.7 276.8 101 262.5 L 101 260.5 L 98 245.5 L 98.5 232 Z " /><path fill="rgb(98,166,182)" stroke="rgb(98,166,182)" stroke-width="1" opacity="0.27450980392156865" d="M 387.5 244 L 385.5 247 L 383.5 248 L 384.5 246 L 387.5 244 Z " /><path fill="rgb(98,166,182)" stroke="rgb(98,166,182)" stroke-width="1" opacity="0.27450980392156865" d="M 381.5 248 L 380.5 250 L 378.5 251 L 379.5 249 L 381.5 248 Z " /><path fill="rgb(98,166,182)" stroke="rgb(98,166,182)" stroke-width="1" opacity="0.27450980392156865" d="M 376.5 251 L 375.5 253 L 376.5 251 Z " /><path fill="rgb(98,166,182)" stroke="rgb(98,166,182)" stroke-width="1" opacity="0.27450980392156865" d="M 254.5 256 L 260 258.5 L 258.5 259 L 253.5 258 L 237.5 278 L 239 275.5 Q 244.7 263.7 254.5 256 Z " /><path fill="rgb(98,166,182)" stroke="rgb(98,166,182)" stroke-width="1" opacity="0.27450980392156865" d="M 261.5 259 L 274 263.5 L 270.5 264 Q 263.6 262.8 261.5 259 Z " /><path fill="rgb(98,166,182)" stroke="rgb(98,166,182)" stroke-width="1" opacity="0.27450980392156865" d="M 278.5 265 L 286 266.5 L 281.5 267 L 278.5 266 L 278.5 265 Z " /><path fill="rgb(98,166,182)" stroke="rgb(98,166,182)" stroke-width="1" opacity="0.27450980392156865" d="M 287.5 267 L 291 267.5 L 287.5 268 L 287.5 267 Z " /><path fill="rgb(98,166,182)" stroke="rgb(98,166,182)" stroke-width="1" opacity="0.27450980392156865" d="M 331.5 267 L 334 267.5 L 331.5 268 L 331.5 267 Z " /><path fill="rgb(98,166,182)" stroke="rgb(98,166,182)" stroke-width="1" opacity="0.27450980392156865" d="M 293.5 268 L 298 268.5 L 293.5 269 L 293.5 268 Z " /><path fill="rgb(98,166,182)" stroke="rgb(98,166,182)" stroke-width="1" opacity="0.27450980392156865" d="M 325.5 268 L 328 268.5 L 325.5 269 L 325.5 268 Z " /><path fill="rgb(98,166,182)" stroke="rgb(98,166,182)" stroke-width="1" opacity="0.27450980392156865" d="M 311.5 269 L 315 269.5 L 311.5 270 L 311.5 269 Z " /><path fill="rgb(98,166,182)" stroke="rgb(98,166,182)" stroke-width="1" opacity="0.27450980392156865" d="M 191.5 279 L 193 279.5 L 189.5 281 L 189.5 280 L 191.5 279 Z " /><path fill="rgb(98,166,182)" stroke="rgb(98,166,182)" stroke-width="1" opacity="0.27450980392156865" d="M 234.5 282 L 233.5 284 L 234.5 282 Z " /><path fill="rgb(98,166,182)" stroke="rgb(98,166,182)" stroke-width="1" opacity="0.27450980392156865" d="M 254.5 283 L 258.5 283 L 263.5 287 L 265.5 287 L 294.5 305 L 313.5 319 L 317 320 L 318.5 323 L 323 326.5 L 319.5 324 Q 290 301.5 255.5 284 Q 248.6 296.6 238 305.5 L 238 308 L 267 324.5 L 265.5 325 L 236 307.5 Q 234.9 304.2 237.5 305 L 254.5 283 Z " /><path fill="rgb(98,166,182)" stroke="rgb(98,166,182)" stroke-width="1" opacity="0.27450980392156865" d="M 404.5 286 L 415.5 289 L 425 289.5 L 414.5 290 L 405.5 287 L 401 290.5 Q 393.6 297.1 393.5 311 L 393 304.5 Q 395.4 291.9 404.5 286 Z " /><path fill="rgb(98,166,182)" stroke="rgb(98,166,182)" stroke-width="1" opacity="0.27450980392156865" d="M 128.5 297 L 130.5 300 L 128.5 297 Z " /><path fill="rgb(98,166,182)" stroke="rgb(98,166,182)" stroke-width="1" opacity="0.27450980392156865" d="M 363.5 301 L 364 313.5 L 363 313.5 L 362 309.5 L 363.5 301 Z " /><path fill="rgb(98,166,182)" stroke="rgb(98,166,182)" stroke-width="1" opacity="0.27450980392156865" d="M 394.5 312 L 396 316.5 L 395 316.5 L 394.5 312 Z " /><path fill="rgb(98,166,182)" stroke="rgb(98,166,182)" stroke-width="1" opacity="0.27450980392156865" d="M 364.5 318 L 365 320.5 L 364 320.5 L 364.5 318 Z " /><path fill="rgb(98,166,182)" stroke="rgb(98,166,182)" stroke-width="1" opacity="0.27450980392156865" d="M 268.5 325 L 278 331.5 L 276.5 331 L 269.5 327 L 268.5 325 Z " /><path fill="rgb(98,166,182)" stroke="rgb(98,166,182)" stroke-width="1" opacity="0.27450980392156865" d="M 324.5 327 L 328.5 332 L 324.5 327 Z " /><path fill="rgb(98,166,182)" stroke="rgb(98,166,182)" stroke-width="1" opacity="0.27450980392156865" d="M 403.5 328 L 404.5 330 L 403.5 328 Z " /><path fill="rgb(98,166,182)" stroke="rgb(98,166,182)" stroke-width="1" opacity="0.27450980392156865" d="M 279.5 332 L 280.5 334 L 279.5 332 Z " /><path fill="rgb(98,166,182)" stroke="rgb(98,166,182)" stroke-width="1" opacity="0.27450980392156865" d="M 330.5 332 L 331.5 334 L 330.5 332 Z " /><path fill="rgb(98,166,182)" stroke="rgb(98,166,182)" stroke-width="1" opacity="0.27450980392156865" d="M 282.5 334 L 283.5 336 L 282.5 334 Z " /><path fill="rgb(36,124,145)" stroke="rgb(36,124,145)" stroke-width="1" opacity="0.9725490196078431" d="M 371.5 116 L 373.5 119 L 375 118.5 Q 374.3 120.8 376.5 120 L 383 124 L 390 133.5 L 395 145.5 Q 397.7 153.8 396 166.5 Q 390.9 190.9 373.5 203 L 369.5 206 L 368.5 204 Q 370.3 206.8 372 202.5 L 370.5 200 Q 372.3 203.7 374 200.5 L 368 198 L 366.5 201 Q 360.5 199.8 361.5 203 L 356.5 203 L 336.5 207 L 334.5 206 L 331 207 Q 332.4 210.7 326.5 209 L 305.5 214 L 302.5 213 Q 300.4 216.9 295 216 Q 293.9 218.7 296.5 218 L 295.5 220 L 294.5 218 Q 293 220.5 291.5 217 L 286.5 215 L 274 205.5 Q 273.3 203.3 275.5 204 L 286.5 199 L 301.5 195 L 322.5 193 L 337.5 189 Q 352.9 183.9 362 172.5 L 367 159.5 L 366 156.5 Q 365.4 146.6 358.5 143 Q 350.1 135.9 332.5 138 Q 318.8 142.2 311 152.5 Q 311.8 154.8 309.5 154 Q 305.8 159.8 294.5 158 L 287 152.5 Q 283.7 149.3 284 142.5 L 284 140.5 Q 283.3 138.3 285.5 139 L 285.5 137 L 290 136 L 290.5 134 L 298.5 134 Q 301.8 130.2 310 132 Q 308.9 129.3 311.5 130 Q 312.8 127.8 317.5 129 L 319 127.5 L 318.5 126 Q 320.8 125.3 320 127.5 Q 317.8 128.8 320.5 130 L 324 130 Q 322.9 127.3 325.5 128 L 336 126 L 336 123 L 342.5 123 L 346.5 120 Q 354.6 121.6 357.5 118 L 359.5 119 L 361 118.5 L 360.5 120 L 364 118.5 L 362 117.5 L 364.5 117 L 368.5 118 L 371 117.5 L 371.5 116 Z M 333 127 L 333 128 L 336 128 L 333 127 Z " /><path fill="rgb(36,124,145)" stroke="rgb(36,124,145)" stroke-width="1" opacity="0.9725490196078431" d="M 457.5 131 L 457.5 133 L 460.5 132 L 460.5 133 Q 458.3 132.3 459 134.5 L 460.5 134 L 463.5 133 L 462.5 135 L 459.5 136 L 456 134.5 L 457.5 131 Z " /><path fill="rgb(36,124,145)" stroke="rgb(36,124,145)" stroke-width="1" opacity="0.9725490196078431" d="M 284.5 133 L 286 133.5 L 285.5 136 L 283 134.5 L 284.5 133 Z " /><path fill="rgb(36,124,145)" stroke="rgb(36,124,145)" stroke-width="1" opacity="0.9725490196078431" d="M 465.5 134 L 465 135.5 L 465.5 139 L 467.5 135 L 483 147.5 L 485 150.5 Q 496.4 161.6 502 178.5 L 506 196.5 L 506 218.5 L 502 237 L 500 237.5 L 501 239.5 L 500 242 L 497.5 243 L 496.5 241 Q 497.8 243.3 499 240.5 L 493.5 240 Q 487.7 243.7 476.5 242 L 470.5 245 L 468.5 243 L 466 244.5 L 465 242.5 L 473 230.5 L 476 219.5 L 476 197.5 Q 471.7 174.3 455.5 163 Q 447 157 435.5 154 L 428 168.5 L 423.5 173 Q 418.9 169.9 411 171 Q 410 163.8 413 159.5 L 412 158.5 L 412 149.5 L 410 145.5 L 411.5 143 L 412.5 147 L 414 144.5 L 412 141.5 L 416 138.5 L 413.5 142 L 420.5 139 L 421.5 140 L 434.5 140 L 447 138 Q 445.8 141.7 451 140 L 453.5 136 L 456.5 138 L 461.5 137 L 464 138 L 465.5 134 Z M 436 146 Q 436 150 438 147 L 436 146 Z M 499 238 L 500 240 Q 501 237 499 238 Z " /><path fill="rgb(36,124,145)" stroke="rgb(36,124,145)" stroke-width="1" opacity="0.9725490196078431" d="M 411.5 138 L 411 139.5 L 410.5 141 L 410 139.5 L 411.5 138 Z " /><path fill="rgb(36,124,145)" stroke="rgb(36,124,145)" stroke-width="1" opacity="0.9725490196078431" d="M 217.5 141 Q 219.8 140.3 219 142.5 L 217.5 141 Z " /><path fill="rgb(36,124,145)" stroke="rgb(36,124,145)" stroke-width="1" opacity="0.9725490196078431" d="M 217 147 L 219 147.5 L 217 148.5 L 217 147 Z " /><path fill="rgb(36,124,145)" stroke="rgb(36,124,145)" stroke-width="1" opacity="0.9725490196078431" d="M 213.5 148 L 214 150 L 218 150.5 L 216 151.5 L 218 153.5 L 218 167.5 L 223 185.5 Q 231.8 205.7 248.5 218 L 256 223.5 L 252 223.5 Q 252.6 226.3 246.5 225 L 241.5 227 L 231.5 228 L 229.5 228 L 220.5 232 L 219.5 229 L 218.5 230 L 211 222.5 Q 192.2 201.8 188 166.5 L 189 165.5 L 189 155.5 L 190.5 153 L 192 153.5 L 191 151.5 L 192.5 152 L 210.5 152 L 211 150.5 L 213.5 148 Z " /><path fill="rgb(36,124,145)" stroke="rgb(36,124,145)" stroke-width="1" opacity="0.9725490196078431" d="M 149.5 172 L 164.5 172 L 172 177.5 Q 175.7 181.8 174 191.5 L 169.5 198 L 164.5 201 L 153.5 202 L 146.5 204 L 135 213.5 L 132 218.5 L 129 229.5 L 129 247.5 L 130 250 L 127.5 249 L 124.5 252 L 109.5 254 L 107.5 254 L 103 256.5 L 103.5 258 Q 100.8 256.8 103 255.5 L 102 252 Q 98 253.4 100 246.5 L 99 245.5 L 99 227.5 L 103 210.5 Q 108.4 196.4 118.5 187 L 135.5 176 L 149.5 172 Z " /><path fill="rgb(36,124,145)" stroke="rgb(36,124,145)" stroke-width="1" opacity="0.9725490196078431" d="M 82.5 181 L 83 183.5 L 83.5 188 L 84.5 186 L 86 188.5 L 84 188.5 Q 83.3 190.8 85.5 190 L 85.5 192 Q 89.3 191.3 90 193.5 L 90 196.5 L 86 204.5 L 83 215.5 L 82 227 L 80.5 227 L 70 216.5 L 62 203.5 L 62.5 202 L 60 200.5 L 59 198.5 L 62 195.5 L 61.5 192 L 63.5 193 L 64.5 192 L 80.5 192 L 82 190.5 L 80 189.5 Q 83 188.5 82 183.5 Q 79.8 182.2 82.5 181 Z " /><path fill="rgb(36,124,145)" stroke="rgb(36,124,145)" stroke-width="1" opacity="0.9725490196078431" d="M 54.5 186 Q 56.8 185.3 56 187.5 L 54.5 186 Z " /><path fill="rgb(36,124,145)" stroke="rgb(36,124,145)" stroke-width="1" opacity="0.9725490196078431" d="M 408.5 186 Q 417 184 419 188.5 L 415.5 188 L 410.5 187 L 407 189.5 L 405.5 192 L 402.5 190 L 401.5 193 L 400 192.5 L 402 191.5 Q 399.8 190.3 402.5 189 L 408.5 186 Z M 405 189 L 406 191 Q 407 188 405 189 Z " /><path fill="rgb(36,124,145)" stroke="rgb(36,124,145)" stroke-width="1" opacity="0.9725490196078431" d="M 56.5 190 L 58.5 194 L 59.5 192 L 60 193.5 L 58.5 197 Q 60.1 195.3 57 193.5 L 56.5 190 Z " /><path fill="rgb(36,124,145)" stroke="rgb(36,124,145)" stroke-width="1" opacity="0.9725490196078431" d="M 368.5 201 L 369.5 203 Q 366.7 203.7 368.5 201 Z " /><path fill="rgb(36,124,145)" stroke="rgb(36,124,145)" stroke-width="1" opacity="0.9725490196078431" d="M 257.5 224 L 263 227.5 L 261.5 228 L 257.5 225 L 256 225.5 L 257.5 224 Z " /><path fill="rgb(113,178,192)" stroke="rgb(113,178,192)" stroke-width="1" opacity="0.9882352941176471" d="M 418.5 208 L 417.5 210 L 418.5 208 Z " /><path fill="rgb(113,178,192)" stroke="rgb(113,178,192)" stroke-width="1" opacity="0.9882352941176471" d="M 417.5 211 L 417 212.5 L 417.5 214 L 421 211.5 Q 417.5 213 420 214.5 L 412 222.5 L 410.5 225 L 409 225 L 409 227 Q 406.3 225.9 407 228.5 L 393.5 240 L 390 241 Q 391.1 243.7 388.5 243 L 383 246 Q 384.3 242.7 379.5 244 L 380.5 246 L 382 246.5 L 380.5 248 L 376.5 244 L 375.5 245 L 371.5 247 Q 364 245.5 360.5 248 L 358.5 247 L 355.5 249 L 344.5 250 L 340.5 252 L 326.5 254 L 322.5 256 L 314 256.5 L 314.5 258 L 305.5 260 L 302.5 259 L 296.5 262 L 294.5 261 L 292 262.5 L 296 263.5 L 289 267 L 288.5 265 L 284.5 266 L 282.5 266 Q 266.9 262.6 254.5 256 L 245.5 266 L 244 266 L 244 268 Q 241.3 266.9 242 269.5 L 238.5 274 L 236 273 L 235.5 275 Q 233.8 271.9 232 273.5 L 232.5 272 Q 225.7 271.2 223.5 275 L 219.5 274 L 207.5 277 L 205.5 276 Q 203.6 279.6 198.5 280 L 197 279.5 Q 197.8 282.1 194.5 281 L 195 279.5 Q 194.2 276.9 197.5 278 L 202 275 L 220.5 251 L 222 254 L 227 253 Q 225.9 250.3 228.5 251 L 233.5 249 L 235.5 250 L 237.5 249 L 239.5 250 Q 242.5 247 249.5 248 L 256.5 245 L 276.5 243 Q 277.8 240.8 282.5 242 L 284 240.5 L 284.5 239 L 286.5 240 L 289 238.5 L 289.5 240 L 294.5 238 Q 302.5 242 316.5 240 L 333.5 237 L 335 237.5 Q 334.1 234.5 338.5 236 L 352.5 231 L 358.5 227 L 360 227.5 Q 359.3 225.3 361.5 226 L 369.5 222 L 373 223 L 373.5 219 L 374.5 222 L 375.5 220 L 376 222 L 392 218 L 392.5 216 L 397.5 218 L 399.5 217 L 401.5 218 L 404 217 Q 402.8 214 406.5 215 L 409 216.5 L 409.5 215 L 410 217 L 412 216.5 L 411.5 215 Q 414.1 215.7 413 213 L 415.5 213 L 417.5 211 Z M 411 218 L 411 220 L 413 219 L 411 218 Z M 221 252 L 219 255 L 221 254 L 221 252 Z M 290 264 L 290 265 L 292 265 L 290 264 Z " /><path fill="rgb(113,178,192)" stroke="rgb(113,178,192)" stroke-width="1" opacity="0.9882352941176471" d="M 136.5 265 L 137.5 267 L 136.5 265 Z " /><path fill="rgb(113,178,192)" stroke="rgb(113,178,192)" stroke-width="1" opacity="0.9882352941176471" d="M 138.5 268 L 151.5 278 L 166.5 284 L 169.5 283 L 170.5 285 L 167.5 287 L 165.5 286 L 163.5 287 L 161.5 286 L 153.5 290 Q 146.7 289.1 144 291 L 142.5 294 L 140.5 293 L 129 295.5 L 131 298.5 L 129 297.5 L 128.5 296 Q 127.3 298.3 126 295.5 L 126.5 294 L 124.5 294 L 113 282.5 L 111 277 L 121.5 275 L 123.5 273 L 128.5 274 L 136.5 270 L 139 271 L 138.5 268 Z " /><path fill="rgb(113,178,192)" stroke="rgb(113,178,192)" stroke-width="1" opacity="0.9882352941176471" d="M 466.5 274 L 467 275.5 L 466 277.5 L 466.5 279 L 465 278.5 L 463.5 281 L 460 281 Q 461.3 284 457.5 283 L 455.5 283 L 452.5 285 L 439.5 289 L 431.5 289 L 430 288.5 Q 430.9 291.9 425.5 290 L 418.5 288 L 415.5 289 L 406 286.5 L 406.5 285 L 398 292.5 Q 392.5 299 393 311.5 L 393 313.5 L 392.5 316 L 388.5 315 L 388.5 317 L 383.5 315 L 380.5 317 L 378.5 316 L 373.5 317 L 368 320 L 367.5 318 L 366.5 320 L 364 315.5 L 364 300.5 L 367.5 289 L 370.5 290 L 372 287.5 L 368 287.5 Q 367.4 284.8 373.5 286 L 375 285.5 L 375 288 L 381.5 288 L 384.5 287 L 394.5 287 L 400 286 L 401.5 283 L 403 283.5 L 402.5 285 L 407 283 L 407.5 285 L 408 283 Q 410.7 281.9 410 284.5 L 409.5 286 L 412 286 Q 410.7 281.9 414 283 L 415.5 286 L 416 284 L 423.5 284 L 424.5 283 L 430 285 Q 428.6 281.3 434.5 283 L 439.5 281 L 441.5 282 L 448 281 L 448.5 283 L 449.5 280 L 454.5 281 L 456 279.5 Q 455.2 276.9 458.5 278 L 461.5 277 L 463.5 278 L 464.5 275 L 466 275.5 L 466.5 274 Z M 451 282 L 452 284 L 454 283 L 451 282 Z " /><path fill="rgb(113,178,192)" stroke="rgb(113,178,192)" stroke-width="1" opacity="0.9882352941176471" d="M 237.5 276 L 236.5 278 L 237.5 276 Z " /><path fill="rgb(113,178,192)" stroke="rgb(113,178,192)" stroke-width="1" opacity="0.9882352941176471" d="M 370.5 283 L 371.5 285 L 369 284.5 L 370.5 283 Z " /><path fill="rgb(113,178,192)" stroke="rgb(113,178,192)" stroke-width="1" opacity="0.9882352941176471" d="M 273.5 294 L 272.5 296 L 273.5 294 Z " /><path fill="rgb(113,178,192)" stroke="rgb(113,178,192)" stroke-width="1" opacity="0.9882352941176471" d="M 283.5 300 L 318 323.5 L 317 325.5 L 319.5 326 Q 320.7 323.7 322 326.5 L 319.5 327 L 317.5 328 L 317 326 L 314 326.5 L 314.5 328 L 310.5 326 L 307.5 327 L 304.5 329 Q 302.7 326.3 296.5 328 L 288.5 330 L 286.5 329 L 284.5 330 L 284.5 328 Q 281.5 327.1 283 331.5 L 282 331.5 L 281.5 329 L 278 331.5 Q 278.8 328.9 275.5 330 L 244 310.5 L 245.5 311 L 247 310.5 L 246 308 L 251.5 307 L 253.5 307 L 263.5 304 L 266.5 305 L 274.5 302 L 275 304 L 277.5 303 L 281.5 304 L 283.5 300 Z " /><path fill="rgb(113,178,192)" stroke="rgb(113,178,192)" stroke-width="1" opacity="0.9882352941176471" d="M 239.5 305 L 241 305.5 L 239 306 L 238.5 308 L 238 306.5 L 239.5 305 Z " /><path fill="rgb(142,202,215)" stroke="rgb(142,202,215)" stroke-width="1" opacity="0.984313725490196" d="M 386.5 242 L 386.5 245 L 384 244.5 L 386.5 242 Z " /><path fill="rgb(142,202,215)" stroke="rgb(142,202,215)" stroke-width="1" opacity="0.984313725490196" d="M 376.5 244 L 380.5 248 L 382 246.5 L 379 244.5 L 383 244 L 384 246.5 L 363.5 258 L 339.5 266 L 321.5 268 L 320.5 269 L 302.5 269 L 301.5 268 L 293.5 268 L 291 266.5 L 291.5 265 L 289 265 Q 290.1 267.7 287.5 267 L 289.5 264 L 293.5 265 L 296 263.5 L 292 262.5 L 295.5 261 Q 297 263.5 298.5 260 L 302.5 259 L 305.5 260 L 315 257.5 L 314.5 256 L 322.5 256 L 326.5 254 L 331.5 254 L 344.5 250 L 355.5 249 L 359.5 247 L 361.5 248 L 362.5 247 L 371.5 247 L 376.5 244 Z " /><path fill="rgb(142,202,215)" stroke="rgb(142,202,215)" stroke-width="1" opacity="0.984313725490196" d="M 240.5 268 L 241.5 270 L 242.5 268 L 243 269.5 L 240 271.5 L 240 269.5 L 240.5 268 Z " /><path fill="rgb(142,202,215)" stroke="rgb(142,202,215)" stroke-width="1" opacity="0.984313725490196" d="M 228.5 272 Q 234.5 271 235.5 275 L 236 273.5 L 235.5 272 L 237.5 273 Q 238.8 270.7 240 273.5 L 223.5 294 Q 214.1 302.6 201.5 308 L 187.5 312 L 171.5 313 L 170.5 312 L 157.5 311 L 147.5 308 L 138.5 304 L 130 297.5 L 129.5 296 L 128 296.5 L 129.5 295 L 141.5 293 Q 142.8 295.3 144 292.5 Q 143.3 290.3 145.5 291 Q 147.3 288.3 153.5 290 L 161 286.5 L 160.5 285 L 164.5 287 L 166.5 286 Q 168 288.5 169.5 285 L 185.5 283 L 194.5 279 L 194.5 281 Q 197.8 282.1 197 279.5 L 198.5 280 L 206.5 276 L 208.5 276 L 222.5 274 L 224.5 274 L 228.5 272 Z " /><path fill="rgb(142,202,215)" stroke="rgb(142,202,215)" stroke-width="1" opacity="0.984313725490196" d="M 165.5 283 L 168 284.5 L 166.5 284 L 165.5 283 Z " /><path fill="rgb(142,202,215)" stroke="rgb(142,202,215)" stroke-width="1" opacity="0.984313725490196" d="M 393.5 313 Q 398.5 328 410.5 336 Q 418.4 343.1 429.5 347 L 437 353.5 L 439 362.5 Q 437.9 369.9 432.5 373 Q 429.5 376 422.5 375 Q 395.3 364.7 378 344.5 L 367 326.5 L 365 317.5 L 366 317.5 L 366.5 320 L 367.5 318 L 368 320 L 373.5 317 L 379.5 316 L 381.5 317 Q 383 313.5 384.5 316 L 388.5 317 L 388.5 315 L 392.5 316 L 393.5 313 Z " /><path fill="rgb(142,202,215)" stroke="rgb(142,202,215)" stroke-width="1" opacity="0.984313725490196" d="M 318.5 324 L 348 348 L 348 350 Q 350.7 348.9 350 351.5 L 367 370.5 L 372 380.5 L 372 388.5 L 366.5 396 Q 362.8 399.3 354.5 398 L 346 391.5 Q 339 376.5 326.5 367 Q 304.3 347.7 279 331.5 L 282 329.5 L 282.5 332 L 283 328 L 285 328.5 L 284.5 330 L 287.5 329 L 290.5 330 Q 295.1 327.1 303.5 328 L 306 329 Q 304.9 326.3 307.5 327 L 310.5 326 L 314.5 328 L 314.5 326 L 318.5 324 Z M 317 326 L 318 328 L 320 327 L 317 326 Z " /><path fill="rgb(68,152,172)" stroke="rgb(68,152,172)" stroke-width="1" opacity="0.9882352941176471" d="M 443.5 94 L 445 104.5 L 444 104.5 L 443.5 94 Z " /><path fill="rgb(68,152,172)" stroke="rgb(68,152,172)" stroke-width="1" opacity="0.9882352941176471" d="M 291.5 99 L 292.5 101 L 291.5 99 Z " /><path fill="rgb(68,152,172)" stroke="rgb(68,152,172)" stroke-width="1" opacity="0.9882352941176471" d="M 416.5 104 L 417.5 112 L 418.5 108 L 420.5 110 L 424.5 108 L 429.5 106 L 432 107 Q 430.3 112.2 434 111 L 436.5 104 Q 439 105.2 438 109 Q 440.7 107.9 440 110.5 L 441 110.5 L 440 107.5 L 443 105.5 L 445 109.5 L 444 111.5 L 445 112.5 L 445 121.5 L 444 126 L 448.5 128 L 450.5 128 L 455 129.5 L 454.5 131 L 456.5 130 L 457.5 132 L 459.5 131 L 459.5 133 L 461.5 132 L 462 134 L 460 134.5 L 462.5 135 L 464.5 134 L 467 135.5 L 465.5 139 L 464.5 135 L 464 138 L 457.5 137 L 455.5 137 L 453.5 136 L 451 140 L 447 140 Q 448.1 137.3 445.5 138 L 434.5 140 L 421.5 140 L 419.5 139 L 413 142 L 414 144.5 L 413 146.5 L 414 148.5 L 413 148.5 L 411.5 143 L 410.5 145 Q 408.3 143.3 409 138.5 L 414 126.5 L 416.5 104 Z M 458 133 L 459 135 Q 460 132 458 133 Z " /><path fill="rgb(68,152,172)" stroke="rgb(68,152,172)" stroke-width="1" opacity="0.9882352941176471" d="M 297.5 105 L 298 107.5 L 297 107.5 L 297.5 105 Z " /><path fill="rgb(68,152,172)" stroke="rgb(68,152,172)" stroke-width="1" opacity="0.9882352941176471" d="M 299.5 107 Q 304.3 109.5 302.5 112 L 305 113.5 L 307.5 117 Q 315.3 111.3 326.5 109 L 346.5 108 L 357.5 110 L 366 113 L 366.5 115 L 368.5 115 L 371 116.5 L 372.5 119 L 374 118.5 L 372.5 120 L 368.5 118 L 362.5 117 L 362.5 118 L 364 118.5 L 360.5 120 L 357.5 118 Q 354.6 121.6 346.5 120 L 342.5 123 L 336 123 Q 337.8 127.5 332.5 126 L 332.5 127 L 336 127.5 L 332.5 128 Q 331.3 125.7 326.5 127 L 324 128 Q 325.3 131.3 320.5 130 Q 319 126.5 317.5 129 Q 312.1 128.4 310 130 L 309.5 132 L 301.5 132 Q 298.2 135.8 290 134 Q 291.3 137 287.5 136 L 285 137.5 L 285.5 139 Q 282.9 139.8 284 136.5 L 283.5 135 L 286 133.5 L 284.5 133 L 282.5 134 L 282.5 132 Q 280.3 132.8 281 130.5 L 274.5 123 L 262 116.5 L 262.5 115 L 265 116.5 L 265.5 115 L 266.5 117 L 267.5 115 L 268 119 Q 271 120.3 270 116.5 L 269 114.5 L 270 114.5 L 270.5 116 L 272 115.5 L 270 119.5 L 273.5 121 L 275 118 Q 272.3 119.1 273 116.5 Q 274.8 113.3 281.5 115 L 283.5 116 L 286.5 112 L 292 113 L 291 109.5 L 292.5 110 L 295 110 Q 293.9 112.7 296.5 112 L 299 111.5 L 300 108.5 L 299.5 107 Z M 319 126 L 320 128 Q 321 125 319 126 Z " /><path fill="rgb(68,152,172)" stroke="rgb(68,152,172)" stroke-width="1" opacity="0.9882352941176471" d="M 262.5 112 L 261.5 114 L 262.5 112 Z " /><path fill="rgb(68,152,172)" stroke="rgb(68,152,172)" stroke-width="1" opacity="0.9882352941176471" d="M 248.5 115 L 256 115.5 L 248.5 116 L 248.5 115 Z " /><path fill="rgb(68,152,172)" stroke="rgb(68,152,172)" stroke-width="1" opacity="0.9882352941176471" d="M 257.5 115 L 261 116.5 L 258.5 117 L 257.5 115 Z " /><path fill="rgb(68,152,172)" stroke="rgb(68,152,172)" stroke-width="1" opacity="0.9882352941176471" d="M 240.5 116 L 241 118 L 239 117.5 L 240.5 116 Z " /><path fill="rgb(68,152,172)" stroke="rgb(68,152,172)" stroke-width="1" opacity="0.9882352941176471" d="M 234.5 119 L 236 119.5 L 233.5 121 L 234.5 119 Z " /><path fill="rgb(68,152,172)" stroke="rgb(68,152,172)" stroke-width="1" opacity="0.9882352941176471" d="M 377.5 120 L 378.5 122 L 376 121.5 L 377.5 120 Z " /><path fill="rgb(68,152,172)" stroke="rgb(68,152,172)" stroke-width="1" opacity="0.9882352941176471" d="M 230.5 121 L 231.5 123 L 228 125.5 L 223 132.5 L 218 145.5 L 218.5 147 Q 216.3 146.3 217 148.5 L 217.5 150 Q 213.1 151.5 214 148.5 L 211 150.5 L 210.5 152 L 192.5 152 L 192 153.5 L 190 153.5 L 188.5 166 L 188 148.5 L 192 130 L 194 129.5 L 193 127.5 L 195.5 122 L 196 124.5 L 195.5 126 L 198.5 128 L 201.5 127 L 205.5 129 L 207.5 126 L 208 128 L 211.5 130 L 218.5 127 L 218 128.5 L 218.5 130 L 220.5 129 L 219 131.5 L 219.5 133 Q 222.5 132.5 222 128.5 L 221 126 L 225.5 128 L 223.5 124 L 225 124.5 L 224 122.5 L 226.5 124 L 228.5 122 L 230.5 121 Z M 197 128 L 196 132 L 197 132 L 197 128 Z M 218 141 L 219 143 Q 220 140 218 141 Z " /><path fill="rgb(68,152,172)" stroke="rgb(68,152,172)" stroke-width="1" opacity="0.9882352941176471" d="M 469.5 138 L 468.5 140 L 467 139.5 L 469.5 138 Z " /><path fill="rgb(68,152,172)" stroke="rgb(68,152,172)" stroke-width="1" opacity="0.9882352941176471" d="M 471.5 139 L 472.5 141 L 471.5 139 Z " /><path fill="rgb(68,152,172)" stroke="rgb(68,152,172)" stroke-width="1" opacity="0.9882352941176471" d="M 50.5 144 L 51 148 Q 48 149.3 49 145.5 L 50.5 144 Z " /><path fill="rgb(68,152,172)" stroke="rgb(68,152,172)" stroke-width="1" opacity="0.9882352941176471" d="M 435.5 146 L 438 146.5 Q 435.9 149.8 435.5 146 Z " /><path fill="rgb(68,152,172)" stroke="rgb(68,152,172)" stroke-width="1" opacity="0.9882352941176471" d="M 77 148 Q 79.7 146.9 79 149.5 Q 76.2 151.3 78 157.5 Q 80.7 159.3 79 165.5 L 83 177.5 Q 80.5 179 84 180.5 L 91 194.5 L 90 194.5 L 88.5 192 L 85 191.5 L 85.5 190 Q 83.3 190.8 84 188.5 L 82.5 183 Q 83 188.1 80 189.5 L 82 190.5 L 80.5 192 L 64.5 192 L 62 193.5 L 64 194.5 L 62 195.5 L 63.5 198 Q 61.8 194.3 60 197.5 L 60.5 199 L 58 195.5 L 58 193.5 Q 58.5 189 55 188.5 L 56 186 Q 53.3 187.1 54 184.5 L 50 170.5 L 49 157.5 L 50 157.5 L 51.5 160 L 52 157.5 L 51.5 156 Q 55.2 158 53.5 160 L 55.5 159 L 59.5 160 L 60.5 159 L 63 160.5 L 63 158 L 66 158 Q 64.9 155.3 67.5 156 L 75.5 159 L 76 152.5 L 75.5 151 L 77 151.5 L 77 148 Z M 85 186 L 84 188 L 86 189 L 85 186 Z " /><path fill="rgb(68,152,172)" stroke="rgb(68,152,172)" stroke-width="1" opacity="0.9882352941176471" d="M 411.5 149 L 412 157.5 L 411 157.5 L 411.5 149 Z " /><path fill="rgb(68,152,172)" stroke="rgb(68,152,172)" stroke-width="1" opacity="0.9882352941176471" d="M 216.5 151 Q 218.8 150.3 218 152.5 L 216.5 151 Z " /><path fill="rgb(68,152,172)" stroke="rgb(68,152,172)" stroke-width="1" opacity="0.9882352941176471" d="M 433.5 154 L 432.5 156 L 433.5 154 Z " /><path fill="rgb(68,152,172)" stroke="rgb(68,152,172)" stroke-width="1" opacity="0.9882352941176471" d="M 444.5 155 L 445.5 157 L 444.5 155 Z " /><path fill="rgb(68,152,172)" stroke="rgb(68,152,172)" stroke-width="1" opacity="0.9882352941176471" d="M 412.5 159 L 412 160.5 L 411.5 164 L 411 160.5 L 412.5 159 Z " /><path fill="rgb(68,152,172)" stroke="rgb(68,152,172)" stroke-width="1" opacity="0.9882352941176471" d="M 410.5 187 Q 415.1 186.4 416.5 189 Q 418 185.5 419.5 188 L 422 189.5 L 424 192.5 L 426 194.5 L 427 199.5 L 427 201.5 Q 426 210.5 419.5 214 L 417 213.5 L 416.5 212 L 413 213 Q 414.1 215.7 411.5 215 L 411.5 217 Q 409.3 217.8 410 215.5 L 409 215.5 L 408.5 217 Q 407.4 214.2 404 215 Q 405.1 217.7 402.5 217 L 400.5 218 L 398.5 217 L 395.5 218 L 392.5 216 L 392 218 L 381.5 220 L 375.5 223 L 373.5 219 L 373 223 L 369 221.5 Q 385.8 210.8 398 195.5 L 399.5 193 L 402 192.5 L 400 191.5 L 406.5 188 L 408.5 188 L 410.5 187 Z " /><path fill="rgb(68,152,172)" stroke="rgb(68,152,172)" stroke-width="1" opacity="0.9882352941176471" d="M 368 198 L 374 200.5 L 361.5 211 L 360 210.5 Q 360.8 212.8 358.5 212 Q 347 218.5 331.5 221 Q 330 218.5 328.5 222 L 317.5 223 L 316.5 224 L 303.5 224 L 296 219.5 L 296.5 218 L 294.5 219 L 295 217.5 Q 294.1 214.5 298.5 216 L 304.5 213 L 306.5 213 L 311.5 213 L 316.5 211 L 331 209 Q 329.8 206 333.5 207 L 335.5 206 L 337.5 207 L 349.5 204 L 362 203 Q 360.6 199.3 366.5 201 L 368 198 Z M 369 201 Q 367 204 370 203 L 369 201 Z " /><path fill="rgb(68,152,172)" stroke="rgb(68,152,172)" stroke-width="1" opacity="0.9882352941176471" d="M 63.5 201 L 63.5 204 Q 60.5 202.5 63.5 201 Z " /><path fill="rgb(68,152,172)" stroke="rgb(68,152,172)" stroke-width="1" opacity="0.9882352941176471" d="M 411 218 L 413 218.5 L 411 219.5 L 411 218 Z " /><path fill="rgb(68,152,172)" stroke="rgb(68,152,172)" stroke-width="1" opacity="0.9882352941176471" d="M 251.5 222 L 255.5 224 L 261.5 228 L 282.5 236 L 292.5 238 L 294 239.5 L 292.5 239 L 289.5 240 L 288.5 238 L 285.5 240 L 284 239.5 L 282.5 242 L 256.5 245 L 249.5 248 Q 242.1 247.1 238.5 250 L 236.5 249 L 234.5 250 L 232.5 249 L 227 251 Q 228.3 254 224.5 253 L 222 254 L 221.5 252 L 219.5 255 L 219 253.5 L 223 247.5 L 229 239.5 L 221 232.5 Q 220.2 229.9 223.5 231 L 230.5 227 L 234.5 228 L 252 225 L 251.5 222 Z " /><path fill="rgb(68,152,172)" stroke="rgb(68,152,172)" stroke-width="1" opacity="0.9882352941176471" d="M 500.5 237 L 500 238.5 L 498 241.5 L 499 244 L 497 244.5 L 498 246.5 Q 490.3 261.8 477.5 272 L 473 274 Q 474.1 276.7 471.5 276 L 467.5 279 L 466 278.5 L 465.5 280 L 465 278.5 L 466 276.5 L 463.5 278 L 459.5 277 L 456 278 L 458 281.5 L 454 284.5 Q 454.8 282.3 452.5 283 L 451 283.5 Q 450.2 280.9 453.5 282 L 455.5 283 L 453.5 280 L 449 280.5 L 448.5 283 L 448 281 L 440.5 282 L 438.5 281 Q 435.5 283.8 430 283 Q 431.3 286 427.5 285 L 424.5 283 L 423.5 284 L 416 284 L 415.5 286 L 414 283 Q 410.7 281.9 412 286 L 409.5 286 L 410 284.5 Q 410.7 281.9 408 283 L 406.5 286 L 405 285.5 L 407 285 Q 408.1 282.3 405.5 283 L 400.5 287 L 395.5 286 L 394.5 287 L 384.5 287 L 383.5 288 L 381.5 288 L 375 288 L 375 285.5 L 373.5 286 L 369 285.5 L 372 284.5 Q 368.5 283 371 281.5 Q 370.3 278.9 373 280 L 373 277.5 L 376 272 L 383.5 269 L 405.5 255 L 414.5 259 L 424.5 261 L 425.5 260 L 435.5 260 L 446.5 257 L 464 246 L 467.5 241 L 466 243.5 L 466.5 245 Q 468.3 241.9 470 243.5 L 471.5 241 L 471 242.5 L 471.5 244 L 476.5 242 L 488.5 242 L 499 239.5 L 498.5 238 L 500.5 237 Z M 402 283 L 400 286 L 403 284 L 402 283 Z " /><path fill="rgb(68,152,172)" stroke="rgb(68,152,172)" stroke-width="1" opacity="0.9882352941176471" d="M 300.5 239 L 306 239.5 L 300.5 240 L 300.5 239 Z " /><path fill="rgb(68,152,172)" stroke="rgb(68,152,172)" stroke-width="1" opacity="0.9882352941176471" d="M 127.5 249 L 130 250.5 L 129.5 252 Q 132.1 251.2 131 254.5 L 132 258.5 L 137.5 267 L 140 268.5 L 139 271 L 136.5 270 L 134.5 272 L 124.5 274 Q 123 271.5 121.5 275 Q 114.5 275 110.5 278 L 103 262.5 L 103.5 261 L 102 260.5 L 102 258.5 L 101 252.5 L 102 252.5 L 102.5 254 L 104 253.5 L 103 255.5 L 104.5 255 L 108.5 253 Q 110 255.5 115.5 254 Q 118.4 251.4 124.5 252 L 127.5 249 Z " /><path fill="rgb(68,152,172)" stroke="rgb(68,152,172)" stroke-width="1" opacity="0.9882352941176471" d="M 255.5 284 L 271 292.5 L 271.5 294 L 273 293.5 L 273.5 295 L 275 294.5 Q 274.2 297.1 277.5 296 L 281 298.5 L 281.5 300 L 283 299.5 L 284 301.5 Q 283.3 304.8 278.5 304 L 276.5 304 Q 274.3 304.8 275 302.5 L 273.5 303 L 264.5 305 L 262.5 304 L 252.5 308 L 248.5 307 L 246 308 L 247 310.5 L 245.5 311 L 239 307.5 L 238 305.5 L 244 301 L 255.5 284 Z " /><path fill="rgb(68,152,172)" stroke="rgb(68,152,172)" stroke-width="1" opacity="0.9882352941176471" d="M 369.5 287 L 372 287.5 L 370.5 290 Q 367.2 291.1 368 288.5 L 369.5 287 Z " /><path fill="rgb(179,228,238)" stroke="rgb(179,228,238)" stroke-width="1" opacity="0.5725490196078431" d="M 247.5 23 L 258 23.5 L 247.5 24 L 247.5 23 Z " /><path fill="rgb(179,228,238)" stroke="rgb(179,228,238)" stroke-width="1" opacity="0.5725490196078431" d="M 233.5 25 L 236 25.5 L 233.5 26 L 233.5 25 Z " /><path fill="rgb(179,228,238)" stroke="rgb(179,228,238)" stroke-width="1" opacity="0.5725490196078431" d="M 270.5 25 L 273 25.5 L 270.5 26 L 270.5 25 Z " /><path fill="rgb(179,228,238)" stroke="rgb(179,228,238)" stroke-width="1" opacity="0.5725490196078431" d="M 228.5 26 L 232 26.5 L 228.5 27 L 228.5 26 Z " /><path fill="rgb(179,228,238)" stroke="rgb(179,228,238)" stroke-width="1" opacity="0.5725490196078431" d="M 274.5 26 L 277 26.5 L 274.5 27 L 274.5 26 Z " /><path fill="rgb(179,228,238)" stroke="rgb(179,228,238)" stroke-width="1" opacity="0.5725490196078431" d="M 221.5 28 L 223 28.5 L 219.5 30 L 219.5 29 L 221.5 28 Z " /><path fill="rgb(179,228,238)" stroke="rgb(179,228,238)" stroke-width="1" opacity="0.5725490196078431" d="M 282.5 28 L 286 29.5 L 284.5 30 L 282.5 28 Z " /><path fill="rgb(179,228,238)" stroke="rgb(179,228,238)" stroke-width="1" opacity="0.5725490196078431" d="M 209.5 33 L 208.5 35 L 206.5 36 L 207.5 34 L 209.5 33 Z " /><path fill="rgb(179,228,238)" stroke="rgb(179,228,238)" stroke-width="1" opacity="0.5725490196078431" d="M 294.5 33 L 297 34.5 L 295.5 34 L 294.5 33 Z " /><path fill="rgb(179,228,238)" stroke="rgb(179,228,238)" stroke-width="1" opacity="0.5725490196078431" d="M 203.5 36 L 205 36.5 L 202.5 38 L 203.5 36 Z " /><path fill="rgb(179,228,238)" stroke="rgb(179,228,238)" stroke-width="1" opacity="0.5725490196078431" d="M 302.5 37 L 303.5 39 L 302.5 37 Z " /><path fill="rgb(179,228,238)" stroke="rgb(179,228,238)" stroke-width="1" opacity="0.5725490196078431" d="M 369.5 38 Q 373.9 36.5 373 39.5 L 371.5 39 Q 368.5 39.5 369.5 38 Z " /><path fill="rgb(179,228,238)" stroke="rgb(179,228,238)" stroke-width="1" opacity="0.5725490196078431" d="M 305.5 39 L 306.5 41 L 305.5 39 Z " /><path fill="rgb(179,228,238)" stroke="rgb(179,228,238)" stroke-width="1" opacity="0.5725490196078431" d="M 355.5 39 L 359 39.5 L 355.5 40 L 355.5 39 Z " /><path fill="rgb(179,228,238)" stroke="rgb(179,228,238)" stroke-width="1" opacity="0.5725490196078431" d="M 382.5 39 L 386 39.5 L 382.5 40 L 382.5 39 Z " /><path fill="rgb(179,228,238)" stroke="rgb(179,228,238)" stroke-width="1" opacity="0.5725490196078431" d="M 387.5 40 L 390 40.5 L 387.5 41 L 387.5 40 Z " /><path fill="rgb(179,228,238)" stroke="rgb(179,228,238)" stroke-width="1" opacity="0.5725490196078431" d="M 343.5 42 L 346 42.5 L 341.5 44 L 341.5 43 L 343.5 42 Z " /><path fill="rgb(179,228,238)" stroke="rgb(179,228,238)" stroke-width="1" opacity="0.5725490196078431" d="M 395.5 42 L 398 42.5 L 395.5 43 L 395.5 42 Z " /><path fill="rgb(179,228,238)" stroke="rgb(179,228,238)" stroke-width="1" opacity="0.5725490196078431" d="M 191.5 44 L 193 44.5 L 183.5 52 L 187.5 47 L 191.5 44 Z " /><path fill="rgb(179,228,238)" stroke="rgb(179,228,238)" stroke-width="1" opacity="0.5725490196078431" d="M 312.5 44 L 314.5 47 L 312.5 44 Z " /><path fill="rgb(179,228,238)" stroke="rgb(179,228,238)" stroke-width="1" opacity="0.5725490196078431" d="M 401.5 44 L 405 45.5 L 403.5 46 L 401.5 44 Z " /><path fill="rgb(179,228,238)" stroke="rgb(179,228,238)" stroke-width="1" opacity="0.5725490196078431" d="M 316.5 47 L 318.5 50 L 316.5 47 Z " /><path fill="rgb(179,228,238)" stroke="rgb(179,228,238)" stroke-width="1" opacity="0.5725490196078431" d="M 341.5 49 L 345.5 54 L 341.5 49 Z " /><path fill="rgb(179,228,238)" stroke="rgb(179,228,238)" stroke-width="1" opacity="0.5725490196078431" d="M 413.5 50 L 416 51.5 L 414.5 51 L 413.5 50 Z " /><path fill="rgb(179,228,238)" stroke="rgb(179,228,238)" stroke-width="1" opacity="0.5725490196078431" d="M 148.5 53 L 151 53.5 L 148.5 54 L 148.5 53 Z " /><path fill="rgb(179,228,238)" stroke="rgb(179,228,238)" stroke-width="1" opacity="0.5725490196078431" d="M 152.5 53 L 155 53.5 L 152.5 54 L 152.5 53 Z " /><path fill="rgb(179,228,238)" stroke="rgb(179,228,238)" stroke-width="1" opacity="0.5725490196078431" d="M 135.5 54 L 145 54.5 L 135.5 55 L 135.5 54 Z " /><path fill="rgb(179,228,238)" stroke="rgb(179,228,238)" stroke-width="1" opacity="0.5725490196078431" d="M 257.5 54 L 258.5 56 L 248 55.5 L 256.5 55 L 257.5 54 Z " /><path fill="rgb(179,228,238)" stroke="rgb(179,228,238)" stroke-width="1" opacity="0.5725490196078431" d="M 124.5 56 L 127 56.5 L 124.5 57 L 124.5 56 Z " /><path fill="rgb(179,228,238)" stroke="rgb(179,228,238)" stroke-width="1" opacity="0.5725490196078431" d="M 347.5 56 L 348.5 58 L 347.5 56 Z " /><path fill="rgb(179,228,238)" stroke="rgb(179,228,238)" stroke-width="1" opacity="0.5725490196078431" d="M 422.5 56 L 423.5 58 L 422.5 56 Z " /><path fill="rgb(179,228,238)" stroke="rgb(179,228,238)" stroke-width="1" opacity="0.5725490196078431" d="M 235.5 57 L 237 57.5 L 233.5 59 L 233.5 58 L 235.5 57 Z " /><path fill="rgb(179,228,238)" stroke="rgb(179,228,238)" stroke-width="1" opacity="0.5725490196078431" d="M 155.5 58 L 153.5 61 L 155.5 58 Z " /><path fill="rgb(179,228,238)" stroke="rgb(179,228,238)" stroke-width="1" opacity="0.5725490196078431" d="M 114.5 59 L 116 59.5 L 113.5 61 L 114.5 59 Z " /><path fill="rgb(179,228,238)" stroke="rgb(179,228,238)" stroke-width="1" opacity="0.5725490196078431" d="M 329.5 59 L 334 64.5 L 329 60.5 L 329.5 59 Z " /><path fill="rgb(179,228,238)" stroke="rgb(179,228,238)" stroke-width="1" opacity="0.5725490196078431" d="M 425.5 59 L 431.5 66 L 425.5 59 Z " /><path fill="rgb(179,228,238)" stroke="rgb(179,228,238)" stroke-width="1" opacity="0.5725490196078431" d="M 227.5 60 L 229 60.5 L 226.5 62 L 227.5 60 Z " /><path fill="rgb(179,228,238)" stroke="rgb(179,228,238)" stroke-width="1" opacity="0.5725490196078431" d="M 350.5 60 L 352.5 63 L 350.5 60 Z " /><path fill="rgb(179,228,238)" stroke="rgb(179,228,238)" stroke-width="1" opacity="0.5725490196078431" d="M 108.5 61 L 110 61.5 L 104.5 64 L 104.5 63 L 108.5 61 Z " /><path fill="rgb(179,228,238)" stroke="rgb(179,228,238)" stroke-width="1" opacity="0.5725490196078431" d="M 173.5 61 L 171.5 64 L 173.5 61 Z " /><path fill="rgb(179,228,238)" stroke="rgb(179,228,238)" stroke-width="1" opacity="0.5725490196078431" d="M 221.5 63 L 220.5 65 L 219 64.5 L 221.5 63 Z " /><path fill="rgb(179,228,238)" stroke="rgb(179,228,238)" stroke-width="1" opacity="0.5725490196078431" d="M 102.5 64 L 101.5 66 L 100 65.5 L 102.5 64 Z " /><path fill="rgb(179,228,238)" stroke="rgb(179,228,238)" stroke-width="1" opacity="0.5725490196078431" d="M 151.5 64 L 150.5 66 L 151.5 64 Z " /><path fill="rgb(179,228,238)" stroke="rgb(179,228,238)" stroke-width="1" opacity="0.5725490196078431" d="M 285.5 64 L 289 66.5 L 287.5 66 L 285.5 64 Z " /><path fill="rgb(179,228,238)" stroke="rgb(179,228,238)" stroke-width="1" opacity="0.5725490196078431" d="M 217.5 65 L 216.5 67 L 214.5 68 L 215.5 66 L 217.5 65 Z " /><path fill="rgb(179,228,238)" stroke="rgb(179,228,238)" stroke-width="1" opacity="0.5725490196078431" d="M 169.5 66 L 168.5 68 L 169.5 66 Z " /><path fill="rgb(179,228,238)" stroke="rgb(179,228,238)" stroke-width="1" opacity="0.5725490196078431" d="M 96.5 67 L 98 67.5 L 94.5 70 L 96.5 67 Z " /><path fill="rgb(179,228,238)" stroke="rgb(179,228,238)" stroke-width="1" opacity="0.5725490196078431" d="M 290.5 67 L 292.5 70 L 290.5 67 Z " /><path fill="rgb(179,228,238)" stroke="rgb(179,228,238)" stroke-width="1" opacity="0.5725490196078431" d="M 335.5 67 L 338.5 71 L 335.5 67 Z " /><path fill="rgb(179,228,238)" stroke="rgb(179,228,238)" stroke-width="1" opacity="0.5725490196078431" d="M 433.5 68 L 434.5 70 L 433.5 68 Z " /><path fill="rgb(179,228,238)" stroke="rgb(179,228,238)" stroke-width="1" opacity="0.5725490196078431" d="M 167.5 69 L 165.5 72 L 167.5 69 Z " /><path fill="rgb(179,228,238)" stroke="rgb(179,228,238)" stroke-width="1" opacity="0.5725490196078431" d="M 356.5 69 L 357 71 L 362 71.5 L 357.5 72 L 356.5 69 Z " /><path fill="rgb(179,228,238)" stroke="rgb(179,228,238)" stroke-width="1" opacity="0.5725490196078431" d="M 294.5 70 L 297.5 74 L 294.5 70 Z " /><path fill="rgb(179,228,238)" stroke="rgb(179,228,238)" stroke-width="1" opacity="0.5725490196078431" d="M 207.5 72 L 206.5 74 L 207.5 72 Z " /><path fill="rgb(179,228,238)" stroke="rgb(179,228,238)" stroke-width="1" opacity="0.5725490196078431" d="M 383.5 72 L 386 72.5 L 383.5 73 L 383.5 72 Z " /><path fill="rgb(179,228,238)" stroke="rgb(179,228,238)" stroke-width="1" opacity="0.5725490196078431" d="M 164.5 73 L 163.5 75 L 164.5 73 Z " /><path fill="rgb(179,228,238)" stroke="rgb(179,228,238)" stroke-width="1" opacity="0.5725490196078431" d="M 390.5 74 L 393 75.5 L 391.5 75 L 390.5 74 Z " /><path fill="rgb(179,228,238)" stroke="rgb(179,228,238)" stroke-width="1" opacity="0.5725490196078431" d="M 203.5 75 L 205 75.5 L 199.5 80 L 203.5 75 Z " /><path fill="rgb(179,228,238)" stroke="rgb(179,228,238)" stroke-width="1" opacity="0.5725490196078431" d="M 300.5 75 L 306.5 82 L 300.5 75 Z " /><path fill="rgb(179,228,238)" stroke="rgb(179,228,238)" stroke-width="1" opacity="0.5725490196078431" d="M 83.5 76 L 79.5 81 L 83.5 76 Z " /><path fill="rgb(179,228,238)" stroke="rgb(179,228,238)" stroke-width="1" opacity="0.5725490196078431" d="M 395.5 76 L 398 77.5 L 396.5 78 L 395.5 76 Z " /><path fill="rgb(179,228,238)" stroke="rgb(179,228,238)" stroke-width="1" opacity="0.5725490196078431" d="M 438.5 76 L 440 78.5 L 438 77.5 L 438.5 76 Z " /><path fill="rgb(179,228,238)" stroke="rgb(179,228,238)" stroke-width="1" opacity="0.5725490196078431" d="M 161.5 78 L 161 79.5 L 159.5 83 L 159 81.5 L 161.5 78 Z " /><path fill="rgb(179,228,238)" stroke="rgb(179,228,238)" stroke-width="1" opacity="0.5725490196078431" d="M 401.5 80 L 403.5 83 L 401.5 80 Z " /><path fill="rgb(179,228,238)" stroke="rgb(179,228,238)" stroke-width="1" opacity="0.5725490196078431" d="M 196.5 83 L 195.5 85 L 196.5 83 Z " /><path fill="rgb(179,228,238)" stroke="rgb(179,228,238)" stroke-width="1" opacity="0.5725490196078431" d="M 158.5 84 L 158 85.5 L 157.5 87 L 157 85.5 L 158.5 84 Z " /><path fill="rgb(179,228,238)" stroke="rgb(179,228,238)" stroke-width="1" opacity="0.5725490196078431" d="M 308.5 84 L 310.5 87 L 308.5 84 Z " /><path fill="rgb(179,228,238)" stroke="rgb(179,228,238)" stroke-width="1" opacity="0.5725490196078431" d="M 74.5 85 L 69.5 91 L 74.5 85 Z " /><path fill="rgb(179,228,238)" stroke="rgb(179,228,238)" stroke-width="1" opacity="0.5725490196078431" d="M 248.5 85 L 255 85.5 L 248.5 86 L 248.5 85 Z " /><path fill="rgb(179,228,238)" stroke="rgb(179,228,238)" stroke-width="1" opacity="0.5725490196078431" d="M 406.5 85 L 407.5 87 L 406.5 85 Z " /><path fill="rgb(179,228,238)" stroke="rgb(179,228,238)" stroke-width="1" opacity="0.5725490196078431" d="M 237.5 86 L 240 86.5 L 237.5 87 L 237.5 86 Z " /><path fill="rgb(179,228,238)" stroke="rgb(179,228,238)" stroke-width="1" opacity="0.5725490196078431" d="M 233.5 87 L 236 87.5 L 233.5 88 L 233.5 87 Z " /><path fill="rgb(179,228,238)" stroke="rgb(179,228,238)" stroke-width="1" opacity="0.5725490196078431" d="M 128.5 88 L 130 88.5 L 126.5 90 L 126.5 89 L 128.5 88 Z " /><path fill="rgb(179,228,238)" stroke="rgb(179,228,238)" stroke-width="1" opacity="0.5725490196078431" d="M 341.5 88 L 340.5 90 L 341.5 88 Z " /><path fill="rgb(179,228,238)" stroke="rgb(179,228,238)" stroke-width="1" opacity="0.5725490196078431" d="M 227.5 89 L 229 89.5 L 224.5 92 L 225.5 90 L 227.5 89 Z " /><path fill="rgb(179,228,238)" stroke="rgb(179,228,238)" stroke-width="1" opacity="0.5725490196078431" d="M 275.5 89 L 280 91.5 L 278.5 91 Q 274.8 90.8 275.5 89 Z " /><path fill="rgb(179,228,238)" stroke="rgb(179,228,238)" stroke-width="1" opacity="0.5725490196078431" d="M 312.5 89 L 315.5 93 L 312.5 89 Z " /><path fill="rgb(179,228,238)" stroke="rgb(179,228,238)" stroke-width="1" opacity="0.5725490196078431" d="M 409.5 89 L 410.5 91 L 409.5 89 Z " /><path fill="rgb(179,228,238)" stroke="rgb(179,228,238)" stroke-width="1" opacity="0.5725490196078431" d="M 122.5 90 L 124 90.5 L 120.5 92 L 120.5 91 L 122.5 90 Z " /><path fill="rgb(179,228,238)" stroke="rgb(179,228,238)" stroke-width="1" opacity="0.5725490196078431" d="M 339.5 91 L 337.5 94 L 339.5 91 Z " /><path fill="rgb(179,228,238)" stroke="rgb(179,228,238)" stroke-width="1" opacity="0.5725490196078431" d="M 444.5 91 L 445 93.5 L 444 93.5 L 444.5 91 Z " /><path fill="rgb(179,228,238)" stroke="rgb(179,228,238)" stroke-width="1" opacity="0.5725490196078431" d="M 68.5 92 L 67.5 94 L 68.5 92 Z " /><path fill="rgb(179,228,238)" stroke="rgb(179,228,238)" stroke-width="1" opacity="0.5725490196078431" d="M 221.5 92 L 223 92.5 L 218.5 95 L 219.5 93 L 221.5 92 Z " /><path fill="rgb(179,228,238)" stroke="rgb(179,228,238)" stroke-width="1" opacity="0.5725490196078431" d="M 154.5 93 L 155 95.5 L 154 95.5 L 154.5 93 Z " /><path fill="rgb(179,228,238)" stroke="rgb(179,228,238)" stroke-width="1" opacity="0.5725490196078431" d="M 327.5 94 L 336 94.5 L 327.5 95 L 327.5 94 Z " /><path fill="rgb(179,228,238)" stroke="rgb(179,228,238)" stroke-width="1" opacity="0.5725490196078431" d="M 216.5 95 L 215.5 97 L 216.5 95 Z " /><path fill="rgb(179,228,238)" stroke="rgb(179,228,238)" stroke-width="1" opacity="0.5725490196078431" d="M 287.5 95 L 290 96.5 L 288.5 96 L 287.5 95 Z " /><path fill="rgb(179,228,238)" stroke="rgb(179,228,238)" stroke-width="1" opacity="0.5725490196078431" d="M 323.5 95 L 326 95.5 L 323.5 96 L 323.5 95 Z " /><path fill="rgb(179,228,238)" stroke="rgb(179,228,238)" stroke-width="1" opacity="0.5725490196078431" d="M 445.5 95 L 446 97.5 L 445 97.5 L 445.5 95 Z " /><path fill="rgb(179,228,238)" stroke="rgb(179,228,238)" stroke-width="1" opacity="0.5725490196078431" d="M 213.5 97 L 211.5 100 L 213.5 97 Z " /><path fill="rgb(179,228,238)" stroke="rgb(179,228,238)" stroke-width="1" opacity="0.5725490196078431" d="M 63.5 99 L 63 100.5 L 61.5 103 L 62 101.5 L 63.5 99 Z " /><path fill="rgb(179,228,238)" stroke="rgb(179,228,238)" stroke-width="1" opacity="0.5725490196078431" d="M 106.5 99 L 105.5 101 L 106.5 99 Z " /><path fill="rgb(179,228,238)" stroke="rgb(179,228,238)" stroke-width="1" opacity="0.5725490196078431" d="M 152.5 101 L 153 104.5 L 152 104.5 L 152.5 101 Z " /><path fill="rgb(179,228,238)" stroke="rgb(179,228,238)" stroke-width="1" opacity="0.5725490196078431" d="M 298.5 103 L 299.5 105 L 298.5 103 Z " /><path fill="rgb(179,228,238)" stroke="rgb(179,228,238)" stroke-width="1" opacity="0.5725490196078431" d="M 60.5 104 L 60 105.5 L 57.5 111 L 57 109.5 L 60.5 104 Z " /><path fill="rgb(179,228,238)" stroke="rgb(179,228,238)" stroke-width="1" opacity="0.5725490196078431" d="M 184.5 104 L 185 106.5 L 184 106.5 L 184.5 104 Z " /><path fill="rgb(179,228,238)" stroke="rgb(179,228,238)" stroke-width="1" opacity="0.5725490196078431" d="M 414.5 105 L 415 114.5 L 414 114.5 L 414.5 105 Z " /><path fill="rgb(179,228,238)" stroke="rgb(179,228,238)" stroke-width="1" opacity="0.5725490196078431" d="M 98.5 106 L 95.5 110 L 98.5 106 Z " /><path fill="rgb(179,228,238)" stroke="rgb(179,228,238)" stroke-width="1" opacity="0.5725490196078431" d="M 151.5 106 L 152 112.5 L 151 112.5 L 151.5 106 Z " /><path fill="rgb(179,228,238)" stroke="rgb(179,228,238)" stroke-width="1" opacity="0.5725490196078431" d="M 329.5 107 L 333 107.5 L 329.5 108 L 329.5 107 Z " /><path fill="rgb(179,228,238)" stroke="rgb(179,228,238)" stroke-width="1" opacity="0.5725490196078431" d="M 343.5 107 L 349 107.5 L 343.5 108 L 343.5 107 Z " /><path fill="rgb(179,228,238)" stroke="rgb(179,228,238)" stroke-width="1" opacity="0.5725490196078431" d="M 202.5 108 L 201.5 110 L 202.5 108 Z " /><path fill="rgb(179,228,238)" stroke="rgb(179,228,238)" stroke-width="1" opacity="0.5725490196078431" d="M 303.5 109 L 304.5 111 L 303.5 109 Z " /><path fill="rgb(179,228,238)" stroke="rgb(179,228,238)" stroke-width="1" opacity="0.5725490196078431" d="M 94.5 111 L 92.5 114 L 94.5 111 Z " /><path fill="rgb(179,228,238)" stroke="rgb(179,228,238)" stroke-width="1" opacity="0.5725490196078431" d="M 200.5 111 L 199.5 113 L 200.5 111 Z " /><path fill="rgb(179,228,238)" stroke="rgb(179,228,238)" stroke-width="1" opacity="0.5725490196078431" d="M 305.5 112 L 306.5 114 L 305.5 112 Z " /><path fill="rgb(179,228,238)" stroke="rgb(179,228,238)" stroke-width="1" opacity="0.5725490196078431" d="M 198.5 114 L 197.5 116 L 198.5 114 Z " /><path fill="rgb(179,228,238)" stroke="rgb(179,228,238)" stroke-width="1" opacity="0.5725490196078431" d="M 374.5 116 L 375.5 118 L 374.5 116 Z " /><path fill="rgb(179,228,238)" stroke="rgb(179,228,238)" stroke-width="1" opacity="0.5725490196078431" d="M 181.5 117 L 176.5 123 L 181.5 117 Z " /><path fill="rgb(179,228,238)" stroke="rgb(179,228,238)" stroke-width="1" opacity="0.5725490196078431" d="M 245.5 117 L 258 117.5 L 245.5 118 L 245.5 117 Z " /><path fill="rgb(179,228,238)" stroke="rgb(179,228,238)" stroke-width="1" opacity="0.5725490196078431" d="M 377.5 118 L 378.5 120 L 377.5 118 Z " /><path fill="rgb(179,228,238)" stroke="rgb(179,228,238)" stroke-width="1" opacity="0.5725490196078431" d="M 264.5 119 L 268 120.5 L 266.5 121 L 264.5 119 Z " /><path fill="rgb(179,228,238)" stroke="rgb(179,228,238)" stroke-width="1" opacity="0.5725490196078431" d="M 158.5 122 L 161 123.5 L 159.5 124 L 158.5 122 Z " /><path fill="rgb(179,228,238)" stroke="rgb(179,228,238)" stroke-width="1" opacity="0.5725490196078431" d="M 271.5 122 L 273.5 125 L 271.5 122 Z " /><path fill="rgb(179,228,238)" stroke="rgb(179,228,238)" stroke-width="1" opacity="0.5725490196078431" d="M 445.5 122 L 446 124.5 L 445 124.5 L 445.5 122 Z " /><path fill="rgb(179,228,238)" stroke="rgb(179,228,238)" stroke-width="1" opacity="0.5725490196078431" d="M 412.5 123 L 413 125.5 L 412 125.5 L 412.5 123 Z " /><path fill="rgb(179,228,238)" stroke="rgb(179,228,238)" stroke-width="1" opacity="0.5725490196078431" d="M 229.5 126 L 228.5 128 L 229.5 126 Z " /><path fill="rgb(179,228,238)" stroke="rgb(179,228,238)" stroke-width="1" opacity="0.5725490196078431" d="M 277.5 128 L 279.5 131 L 277.5 128 Z " /><path fill="rgb(179,228,238)" stroke="rgb(179,228,238)" stroke-width="1" opacity="0.5725490196078431" d="M 226.5 130 L 225.5 132 L 226.5 130 Z " /><path fill="rgb(179,228,238)" stroke="rgb(179,228,238)" stroke-width="1" opacity="0.5725490196078431" d="M 188.5 138 L 189 142.5 L 188 142.5 L 188.5 138 Z " /><path fill="rgb(179,228,238)" stroke="rgb(179,228,238)" stroke-width="1" opacity="0.5725490196078431" d="M 333.5 139 L 336 139.5 L 333.5 140 L 333.5 139 Z " /><path fill="rgb(179,228,238)" stroke="rgb(179,228,238)" stroke-width="1" opacity="0.5725490196078431" d="M 475.5 139 L 477.5 142 L 475.5 139 Z " /><path fill="rgb(179,228,238)" stroke="rgb(179,228,238)" stroke-width="1" opacity="0.5725490196078431" d="M 48.5 140 L 49 147.5 L 48 147.5 L 48.5 140 Z " /><path fill="rgb(179,228,238)" stroke="rgb(179,228,238)" stroke-width="1" opacity="0.5725490196078431" d="M 80.5 141 L 81 143.5 L 80 143.5 L 80.5 141 Z " /><path fill="rgb(179,228,238)" stroke="rgb(179,228,238)" stroke-width="1" opacity="0.5725490196078431" d="M 283.5 143 L 284 147.5 L 283 147.5 L 283.5 143 Z " /><path fill="rgb(179,228,238)" stroke="rgb(179,228,238)" stroke-width="1" opacity="0.5725490196078431" d="M 187.5 144 L 188 146.5 L 187 146.5 L 187.5 144 Z " /><path fill="rgb(179,228,238)" stroke="rgb(179,228,238)" stroke-width="1" opacity="0.5725490196078431" d="M 318.5 146 L 316.5 149 L 318.5 146 Z " /><path fill="rgb(179,228,238)" stroke="rgb(179,228,238)" stroke-width="1" opacity="0.5725490196078431" d="M 483.5 146 L 484.5 148 L 483.5 146 Z " /><path fill="rgb(179,228,238)" stroke="rgb(179,228,238)" stroke-width="1" opacity="0.5725490196078431" d="M 409.5 147 L 410 151.5 L 409 151.5 L 409.5 147 Z " /><path fill="rgb(179,228,238)" stroke="rgb(179,228,238)" stroke-width="1" opacity="0.5725490196078431" d="M 314.5 150 L 312.5 153 L 314.5 150 Z " /><path fill="rgb(179,228,238)" stroke="rgb(179,228,238)" stroke-width="1" opacity="0.5725490196078431" d="M 397.5 153 L 398 162.5 L 397 162.5 L 397.5 153 Z " /><path fill="rgb(179,228,238)" stroke="rgb(179,228,238)" stroke-width="1" opacity="0.5725490196078431" d="M 296.5 159 L 302 159.5 L 296.5 160 L 296.5 159 Z " /><path fill="rgb(179,228,238)" stroke="rgb(179,228,238)" stroke-width="1" opacity="0.5725490196078431" d="M 48.5 160 L 49 167.5 L 48 167.5 L 48.5 160 Z " /><path fill="rgb(179,228,238)" stroke="rgb(179,228,238)" stroke-width="1" opacity="0.5725490196078431" d="M 409.5 166 L 410 170.5 L 409 170.5 L 409.5 166 Z " /><path fill="rgb(179,228,238)" stroke="rgb(179,228,238)" stroke-width="1" opacity="0.5725490196078431" d="M 428.5 169 L 427.5 171 L 428.5 169 Z " /><path fill="rgb(179,228,238)" stroke="rgb(179,228,238)" stroke-width="1" opacity="0.5725490196078431" d="M 187.5 170 L 188 172.5 L 187 172.5 L 187.5 170 Z " /><path fill="rgb(179,228,238)" stroke="rgb(179,228,238)" stroke-width="1" opacity="0.5725490196078431" d="M 462.5 171 L 463.5 173 L 462.5 171 Z " /><path fill="rgb(179,228,238)" stroke="rgb(179,228,238)" stroke-width="1" opacity="0.5725490196078431" d="M 50.5 176 L 51 178.5 L 50 178.5 L 50.5 176 Z " /><path fill="rgb(179,228,238)" stroke="rgb(179,228,238)" stroke-width="1" opacity="0.5725490196078431" d="M 466.5 176 L 467.5 178 L 466.5 176 Z " /><path fill="rgb(179,228,238)" stroke="rgb(179,228,238)" stroke-width="1" opacity="0.5725490196078431" d="M 125.5 180 L 124.5 182 L 125.5 180 Z " /><path fill="rgb(179,228,238)" stroke="rgb(179,228,238)" stroke-width="1" opacity="0.5725490196078431" d="M 88.5 187 L 89.5 189 L 88.5 187 Z " /><path fill="rgb(179,228,238)" stroke="rgb(179,228,238)" stroke-width="1" opacity="0.5725490196078431" d="M 388.5 188 L 387.5 190 L 388.5 188 Z " /><path fill="rgb(179,228,238)" stroke="rgb(179,228,238)" stroke-width="1" opacity="0.5725490196078431" d="M 423.5 189 L 425.5 192 L 423.5 189 Z " /><path fill="rgb(179,228,238)" stroke="rgb(179,228,238)" stroke-width="1" opacity="0.5725490196078431" d="M 385.5 192 L 384.5 194 L 385.5 192 Z " /><path fill="rgb(179,228,238)" stroke="rgb(179,228,238)" stroke-width="1" opacity="0.5725490196078431" d="M 393.5 198 L 383.5 209 L 393.5 198 Z " /><path fill="rgb(179,228,238)" stroke="rgb(179,228,238)" stroke-width="1" opacity="0.5725490196078431" d="M 428.5 198 L 429 202.5 L 428 202.5 L 428.5 198 Z " /><path fill="rgb(179,228,238)" stroke="rgb(179,228,238)" stroke-width="1" opacity="0.5725490196078431" d="M 375.5 202 L 373.5 205 L 375.5 202 Z " /><path fill="rgb(179,228,238)" stroke="rgb(179,228,238)" stroke-width="1" opacity="0.5725490196078431" d="M 60.5 203 L 61.5 205 L 60.5 203 Z " /><path fill="rgb(179,228,238)" stroke="rgb(179,228,238)" stroke-width="1" opacity="0.5725490196078431" d="M 273.5 203 L 272.5 205 L 273.5 203 Z " /><path fill="rgb(179,228,238)" stroke="rgb(179,228,238)" stroke-width="1" opacity="0.5725490196078431" d="M 273.5 206 L 274.5 208 L 273.5 206 Z " /><path fill="rgb(179,228,238)" stroke="rgb(179,228,238)" stroke-width="1" opacity="0.5725490196078431" d="M 370.5 206 L 369.5 208 L 370.5 206 Z " /><path fill="rgb(179,228,238)" stroke="rgb(179,228,238)" stroke-width="1" opacity="0.5725490196078431" d="M 379.5 211 L 377.5 214 L 379.5 211 Z " /><path fill="rgb(179,228,238)" stroke="rgb(179,228,238)" stroke-width="1" opacity="0.5725490196078431" d="M 421.5 214 L 418.5 218 L 421.5 214 Z " /><path fill="rgb(179,228,238)" stroke="rgb(179,228,238)" stroke-width="1" opacity="0.5725490196078431" d="M 368.5 219 L 367.5 221 L 368.5 219 Z " /><path fill="rgb(179,228,238)" stroke="rgb(179,228,238)" stroke-width="1" opacity="0.5725490196078431" d="M 506.5 219 L 507 222.5 L 506 222.5 L 506.5 219 Z " /><path fill="rgb(179,228,238)" stroke="rgb(179,228,238)" stroke-width="1" opacity="0.5725490196078431" d="M 72.5 220 L 78.5 227 L 72.5 220 Z " /><path fill="rgb(179,228,238)" stroke="rgb(179,228,238)" stroke-width="1" opacity="0.5725490196078431" d="M 83.5 220 L 84 222.5 L 83 222.5 L 83.5 220 Z " /><path fill="rgb(179,228,238)" stroke="rgb(179,228,238)" stroke-width="1" opacity="0.5725490196078431" d="M 294.5 220 L 297 221.5 L 295.5 221 L 294.5 220 Z " /><path fill="rgb(179,228,238)" stroke="rgb(179,228,238)" stroke-width="1" opacity="0.5725490196078431" d="M 365.5 221 L 364.5 223 L 365.5 221 Z " /><path fill="rgb(179,228,238)" stroke="rgb(179,228,238)" stroke-width="1" opacity="0.5725490196078431" d="M 473.5 222 L 474 224.5 L 473 224.5 L 473.5 222 Z " /><path fill="rgb(179,228,238)" stroke="rgb(179,228,238)" stroke-width="1" opacity="0.5725490196078431" d="M 325.5 223 L 328 223.5 L 325.5 224 L 325.5 223 Z " /><path fill="rgb(179,228,238)" stroke="rgb(179,228,238)" stroke-width="1" opacity="0.5725490196078431" d="M 362.5 223 L 361.5 225 L 359.5 226 L 360.5 224 L 362.5 223 Z " /><path fill="rgb(179,228,238)" stroke="rgb(179,228,238)" stroke-width="1" opacity="0.5725490196078431" d="M 260.5 224 L 261.5 226 L 260.5 224 Z " /><path fill="rgb(179,228,238)" stroke="rgb(179,228,238)" stroke-width="1" opacity="0.5725490196078431" d="M 318.5 224 L 321 224.5 L 318.5 225 L 318.5 224 Z " /><path fill="rgb(179,228,238)" stroke="rgb(179,228,238)" stroke-width="1" opacity="0.5725490196078431" d="M 98.5 227 L 99 231.5 L 98 231.5 L 98.5 227 Z " /><path fill="rgb(179,228,238)" stroke="rgb(179,228,238)" stroke-width="1" opacity="0.5725490196078431" d="M 354.5 227 L 356 227.5 L 353.5 229 L 354.5 227 Z " /><path fill="rgb(179,228,238)" stroke="rgb(179,228,238)" stroke-width="1" opacity="0.5725490196078431" d="M 408.5 228 L 404.5 233 L 408.5 228 Z " /><path fill="rgb(179,228,238)" stroke="rgb(179,228,238)" stroke-width="1" opacity="0.5725490196078431" d="M 350.5 229 L 352 229.5 L 348.5 231 L 348.5 230 L 350.5 229 Z " /><path fill="rgb(179,228,238)" stroke="rgb(179,228,238)" stroke-width="1" opacity="0.5725490196078431" d="M 220.5 233 L 222.5 236 L 220.5 233 Z " /><path fill="rgb(179,228,238)" stroke="rgb(179,228,238)" stroke-width="1" opacity="0.5725490196078431" d="M 401.5 234 L 398.5 238 L 401.5 234 Z " /><path fill="rgb(179,228,238)" stroke="rgb(179,228,238)" stroke-width="1" opacity="0.5725490196078431" d="M 331.5 235 L 334 235.5 L 331.5 236 L 331.5 235 Z " /><path fill="rgb(179,228,238)" stroke="rgb(179,228,238)" stroke-width="1" opacity="0.5725490196078431" d="M 396.5 238 L 394.5 241 L 396.5 238 Z " /><path fill="rgb(179,228,238)" stroke="rgb(179,228,238)" stroke-width="1" opacity="0.5725490196078431" d="M 465.5 240 L 463.5 243 L 465.5 240 Z " /><path fill="rgb(179,228,238)" stroke="rgb(179,228,238)" stroke-width="1" opacity="0.5725490196078431" d="M 392.5 241 L 390.5 244 L 392.5 241 Z " /><path fill="rgb(179,228,238)" stroke="rgb(179,228,238)" stroke-width="1" opacity="0.5725490196078431" d="M 388.5 243 L 389 244.5 Q 387 249 385 245.5 L 388 244.5 L 388.5 243 Z " /><path fill="rgb(179,228,238)" stroke="rgb(179,228,238)" stroke-width="1" opacity="0.5725490196078431" d="M 98.5 246 L 99 249.5 L 98 249.5 L 98.5 246 Z " /><path fill="rgb(179,228,238)" stroke="rgb(179,228,238)" stroke-width="1" opacity="0.5725490196078431" d="M 382.5 247 L 385 247.5 L 381.5 250 L 382 248.5 L 382.5 247 Z " /><path fill="rgb(179,228,238)" stroke="rgb(179,228,238)" stroke-width="1" opacity="0.5725490196078431" d="M 458.5 247 L 457.5 249 L 458.5 247 Z " /><path fill="rgb(179,228,238)" stroke="rgb(179,228,238)" stroke-width="1" opacity="0.5725490196078431" d="M 377.5 250 L 380 250.5 L 376.5 253 L 377 251.5 L 377.5 250 Z " /><path fill="rgb(179,228,238)" stroke="rgb(179,228,238)" stroke-width="1" opacity="0.5725490196078431" d="M 216.5 253 L 215.5 255 L 216.5 253 Z " /><path fill="rgb(179,228,238)" stroke="rgb(179,228,238)" stroke-width="1" opacity="0.5725490196078431" d="M 370.5 254 L 373 254.5 L 360.5 261 L 349.5 264 L 350.5 262 L 359.5 259 L 361 259.5 L 361.5 258 L 363.5 258 L 366.5 256 L 368 256.5 Q 367.3 254.3 369.5 255 L 370.5 254 Z " /><path fill="rgb(179,228,238)" stroke="rgb(179,228,238)" stroke-width="1" opacity="0.5725490196078431" d="M 398.5 257 L 397.5 259 L 398.5 257 Z " /><path fill="rgb(179,228,238)" stroke="rgb(179,228,238)" stroke-width="1" opacity="0.5725490196078431" d="M 253.5 258 L 250.5 262 L 253.5 258 Z " /><path fill="rgb(179,228,238)" stroke="rgb(179,228,238)" stroke-width="1" opacity="0.5725490196078431" d="M 419.5 258 L 422 258.5 L 419.5 259 L 419.5 258 Z " /><path fill="rgb(179,228,238)" stroke="rgb(179,228,238)" stroke-width="1" opacity="0.5725490196078431" d="M 431.5 258 L 435 258.5 L 431.5 259 L 431.5 258 Z " /><path fill="rgb(179,228,238)" stroke="rgb(179,228,238)" stroke-width="1" opacity="0.5725490196078431" d="M 259.5 259 L 263 260.5 L 261.5 261 L 259.5 259 Z " /><path fill="rgb(179,228,238)" stroke="rgb(179,228,238)" stroke-width="1" opacity="0.5725490196078431" d="M 395.5 259 L 394.5 261 L 395.5 259 Z " /><path fill="rgb(179,228,238)" stroke="rgb(179,228,238)" stroke-width="1" opacity="0.5725490196078431" d="M 211.5 260 L 210.5 262 L 211.5 260 Z " /><path fill="rgb(179,228,238)" stroke="rgb(179,228,238)" stroke-width="1" opacity="0.5725490196078431" d="M 392.5 261 L 391.5 263 L 392.5 261 Z " /><path fill="rgb(179,228,238)" stroke="rgb(179,228,238)" stroke-width="1" opacity="0.5725490196078431" d="M 209.5 263 L 208.5 265 L 209.5 263 Z " /><path fill="rgb(179,228,238)" stroke="rgb(179,228,238)" stroke-width="1" opacity="0.5725490196078431" d="M 347.5 263 L 348 265 L 344.5 266 L 343.5 264 L 345.5 265 L 347.5 263 Z " /><path fill="rgb(179,228,238)" stroke="rgb(179,228,238)" stroke-width="1" opacity="0.5725490196078431" d="M 248.5 264 L 246.5 267 L 248.5 264 Z " /><path fill="rgb(179,228,238)" stroke="rgb(179,228,238)" stroke-width="1" opacity="0.5725490196078431" d="M 273.5 264 L 276.5 265 L 278 264.5 Q 278.8 267.1 275.5 266 L 273.5 264 Z " /><path fill="rgb(179,228,238)" stroke="rgb(179,228,238)" stroke-width="1" opacity="0.5725490196078431" d="M 138.5 265 L 143.5 271 L 138.5 265 Z " /><path fill="rgb(179,228,238)" stroke="rgb(179,228,238)" stroke-width="1" opacity="0.5725490196078431" d="M 340.5 265 Q 343.1 264.3 342 267 L 334.5 268 L 335.5 266 L 337.5 266 L 340.5 265 Z " /><path fill="rgb(179,228,238)" stroke="rgb(179,228,238)" stroke-width="1" opacity="0.5725490196078431" d="M 286.5 266 L 287 268 L 284 267.5 L 286.5 266 Z " /><path fill="rgb(179,228,238)" stroke="rgb(179,228,238)" stroke-width="1" opacity="0.5725490196078431" d="M 206.5 267 L 200.5 274 L 206.5 267 Z " /><path fill="rgb(179,228,238)" stroke="rgb(179,228,238)" stroke-width="1" opacity="0.5725490196078431" d="M 291.5 267 Q 294.1 266.3 293 269 L 288 268.5 L 291.5 267 Z " /><path fill="rgb(179,228,238)" stroke="rgb(179,228,238)" stroke-width="1" opacity="0.5725490196078431" d="M 328 267 L 333 268.5 L 328 269 L 328 267 Z " /><path fill="rgb(179,228,238)" stroke="rgb(179,228,238)" stroke-width="1" opacity="0.5725490196078431" d="M 484.5 267 L 483.5 269 L 484.5 267 Z " /><path fill="rgb(179,228,238)" stroke="rgb(179,228,238)" stroke-width="1" opacity="0.5725490196078431" d="M 298 268 L 304 269.5 L 298 270 L 298 268 Z " /><path fill="rgb(179,228,238)" stroke="rgb(179,228,238)" stroke-width="1" opacity="0.5725490196078431" d="M 321.5 268 L 325 268.5 L 321.5 270 L 315 269.5 L 321.5 268 Z " /><path fill="rgb(179,228,238)" stroke="rgb(179,228,238)" stroke-width="1" opacity="0.5725490196078431" d="M 305.5 269 Q 310.9 268.1 313 270.5 L 311.5 271 Q 310.2 268.8 305.5 270 L 305.5 269 Z " /><path fill="rgb(179,228,238)" stroke="rgb(179,228,238)" stroke-width="1" opacity="0.5725490196078431" d="M 377.5 269 L 379 269.5 L 374.5 273 L 377.5 269 Z " /><path fill="rgb(179,228,238)" stroke="rgb(179,228,238)" stroke-width="1" opacity="0.5725490196078431" d="M 243.5 270 L 241.5 273 L 243.5 270 Z " /><path fill="rgb(179,228,238)" stroke="rgb(179,228,238)" stroke-width="1" opacity="0.5725490196078431" d="M 145.5 271 L 147.5 274 L 145.5 271 Z " /><path fill="rgb(179,228,238)" stroke="rgb(179,228,238)" stroke-width="1" opacity="0.5725490196078431" d="M 478.5 272 L 476.5 275 L 478.5 272 Z " /><path fill="rgb(179,228,238)" stroke="rgb(179,228,238)" stroke-width="1" opacity="0.5725490196078431" d="M 373.5 274 L 372.5 276 L 373.5 274 Z " /><path fill="rgb(179,228,238)" stroke="rgb(179,228,238)" stroke-width="1" opacity="0.5725490196078431" d="M 197.5 275 L 198.5 277 L 196 276.5 L 197.5 275 Z " /><path fill="rgb(179,228,238)" stroke="rgb(179,228,238)" stroke-width="1" opacity="0.5725490196078431" d="M 238.5 275 Q 241.8 276.8 238 278.5 Q 231.4 290.9 220.5 299 L 203.5 309 L 188.5 314 L 162.5 314 L 145.5 309 L 131 300.5 L 131.5 299 L 132 301 Q 135.7 299.5 135 302.5 Q 136.8 300.9 138.5 304 L 157.5 311 L 179.5 313 L 201.5 308 L 214.5 301 L 229 290 L 232.5 284 L 235 282.5 L 234.5 281 L 236 281 Q 234.5 277.3 237.5 278 L 238.5 275 Z " /><path fill="rgb(179,228,238)" stroke="rgb(179,228,238)" stroke-width="1" opacity="0.5725490196078431" d="M 474.5 275 L 472.5 278 L 474.5 275 Z " /><path fill="rgb(179,228,238)" stroke="rgb(179,228,238)" stroke-width="1" opacity="0.5725490196078431" d="M 194.5 277 L 193.5 279 L 192 278.5 L 194.5 277 Z " /><path fill="rgb(179,228,238)" stroke="rgb(179,228,238)" stroke-width="1" opacity="0.5725490196078431" d="M 109.5 279 L 110.5 281 L 109.5 279 Z " /><path fill="rgb(179,228,238)" stroke="rgb(179,228,238)" stroke-width="1" opacity="0.5725490196078431" d="M 187.5 280 Q 189.8 279.3 189 281.5 Q 187.3 279.9 185.5 283 L 183 281.5 L 187.5 280 Z " /><path fill="rgb(179,228,238)" stroke="rgb(179,228,238)" stroke-width="1" opacity="0.5725490196078431" d="M 369.5 281 L 368.5 283 L 369.5 281 Z " /><path fill="rgb(179,228,238)" stroke="rgb(179,228,238)" stroke-width="1" opacity="0.5725490196078431" d="M 464.5 281 L 463.5 283 L 462 282.5 L 464.5 281 Z " /><path fill="rgb(179,228,238)" stroke="rgb(179,228,238)" stroke-width="1" opacity="0.5725490196078431" d="M 167.5 282 L 170.5 283 L 171.5 282 L 179 282 L 178.5 284 L 170.5 284 L 167.5 283 L 167.5 282 Z " /><path fill="rgb(179,228,238)" stroke="rgb(179,228,238)" stroke-width="1" opacity="0.5725490196078431" d="M 112.5 283 L 114.5 286 L 112.5 283 Z " /><path fill="rgb(179,228,238)" stroke="rgb(179,228,238)" stroke-width="1" opacity="0.5725490196078431" d="M 252.5 285 L 251.5 287 L 252.5 285 Z " /><path fill="rgb(179,228,238)" stroke="rgb(179,228,238)" stroke-width="1" opacity="0.5725490196078431" d="M 115.5 287 L 116.5 289 L 115.5 287 Z " /><path fill="rgb(179,228,238)" stroke="rgb(179,228,238)" stroke-width="1" opacity="0.5725490196078431" d="M 403.5 288 L 401.5 291 L 403.5 288 Z " /><path fill="rgb(179,228,238)" stroke="rgb(179,228,238)" stroke-width="1" opacity="0.5725490196078431" d="M 445.5 288 L 448 288.5 L 445.5 289 L 445.5 288 Z " /><path fill="rgb(179,228,238)" stroke="rgb(179,228,238)" stroke-width="1" opacity="0.5725490196078431" d="M 118.5 290 L 119.5 292 L 118.5 290 Z " /><path fill="rgb(179,228,238)" stroke="rgb(179,228,238)" stroke-width="1" opacity="0.5725490196078431" d="M 417.5 290 L 427 290.5 L 417.5 291 L 417.5 290 Z " /><path fill="rgb(179,228,238)" stroke="rgb(179,228,238)" stroke-width="1" opacity="0.5725490196078431" d="M 430.5 290 L 438 290.5 L 430.5 291 L 430.5 290 Z " /><path fill="rgb(179,228,238)" stroke="rgb(179,228,238)" stroke-width="1" opacity="0.5725490196078431" d="M 248.5 291 L 247.5 293 L 248.5 291 Z " /><path fill="rgb(179,228,238)" stroke="rgb(179,228,238)" stroke-width="1" opacity="0.5725490196078431" d="M 123.5 294 L 130 299.5 L 127.5 298 L 123.5 294 Z " /><path fill="rgb(179,228,238)" stroke="rgb(179,228,238)" stroke-width="1" opacity="0.5725490196078431" d="M 245.5 295 L 244.5 297 L 245.5 295 Z " /><path fill="rgb(179,228,238)" stroke="rgb(179,228,238)" stroke-width="1" opacity="0.5725490196078431" d="M 397.5 296 L 397 297.5 L 396.5 299 L 396 297.5 L 397.5 296 Z " /><path fill="rgb(179,228,238)" stroke="rgb(179,228,238)" stroke-width="1" opacity="0.5725490196078431" d="M 242.5 299 L 237.5 305 L 242.5 299 Z " /><path fill="rgb(179,228,238)" stroke="rgb(179,228,238)" stroke-width="1" opacity="0.5725490196078431" d="M 287.5 300 L 288.5 302 L 287.5 300 Z " /><path fill="rgb(179,228,238)" stroke="rgb(179,228,238)" stroke-width="1" opacity="0.5725490196078431" d="M 290.5 302 L 291.5 304 L 290.5 302 Z " /><path fill="rgb(179,228,238)" stroke="rgb(179,228,238)" stroke-width="1" opacity="0.5725490196078431" d="M 362.5 303 L 363 308.5 L 362 308.5 L 362.5 303 Z " /><path fill="rgb(179,228,238)" stroke="rgb(179,228,238)" stroke-width="1" opacity="0.5725490196078431" d="M 394.5 304 L 395 312 L 393 311.5 L 394.5 304 Z " /><path fill="rgb(179,228,238)" stroke="rgb(179,228,238)" stroke-width="1" opacity="0.5725490196078431" d="M 299.5 308 L 300.5 310 L 299.5 308 Z " /><path fill="rgb(179,228,238)" stroke="rgb(179,228,238)" stroke-width="1" opacity="0.5725490196078431" d="M 302.5 310 L 304.5 313 L 302.5 310 Z " /><path fill="rgb(179,228,238)" stroke="rgb(179,228,238)" stroke-width="1" opacity="0.5725490196078431" d="M 244.5 312 L 247 313.5 L 245.5 314 L 244.5 312 Z " /><path fill="rgb(179,228,238)" stroke="rgb(179,228,238)" stroke-width="1" opacity="0.5725490196078431" d="M 306.5 313 L 307.5 315 L 306.5 313 Z " /><path fill="rgb(179,228,238)" stroke="rgb(179,228,238)" stroke-width="1" opacity="0.5725490196078431" d="M 363.5 314 L 365 318 L 363 317.5 L 363 315.5 L 363.5 314 Z " /><path fill="rgb(179,228,238)" stroke="rgb(179,228,238)" stroke-width="1" opacity="0.5725490196078431" d="M 395.5 314 L 394.5 316 L 395.5 314 Z " /><path fill="rgb(179,228,238)" stroke="rgb(179,228,238)" stroke-width="1" opacity="0.5725490196078431" d="M 309.5 315 L 310.5 317 L 309.5 315 Z " /><path fill="rgb(179,228,238)" stroke="rgb(179,228,238)" stroke-width="1" opacity="0.5725490196078431" d="M 253.5 317 L 257 319.5 L 255.5 319 L 253.5 317 Z " /><path fill="rgb(179,228,238)" stroke="rgb(179,228,238)" stroke-width="1" opacity="0.5725490196078431" d="M 312.5 317 L 313.5 319 L 312.5 317 Z " /><path fill="rgb(179,228,238)" stroke="rgb(179,228,238)" stroke-width="1" opacity="0.5725490196078431" d="M 395.5 317 L 398 318.5 Q 400.9 326.6 407.5 331 L 410.5 333 L 417.5 339 L 433.5 347 L 438 351.5 L 440 354.5 L 441 361.5 Q 438.7 362.7 440 367.5 L 433.5 375 Q 429.9 377.9 422.5 377 Q 396.5 368 380 349.5 L 378 346.5 L 375 342 Q 372.3 343.1 373 340.5 L 367 329 Q 369.7 327.9 369 330.5 Q 376 345.5 388.5 355 Q 400 365 414.5 372 L 422.5 375 L 428.5 375 L 437 368.5 L 439 359.5 Q 437.9 352.1 432.5 349 Q 416.1 342.4 405 330.5 L 403.5 328 L 399 324.5 L 399.5 323 L 397 321.5 L 397.5 320 Q 395.3 320.8 396 318.5 L 395.5 317 Z " /><path fill="rgb(179,228,238)" stroke="rgb(179,228,238)" stroke-width="1" opacity="0.5725490196078431" d="M 260.5 321 L 261.5 323 L 260.5 321 Z " /><path fill="rgb(179,228,238)" stroke="rgb(179,228,238)" stroke-width="1" opacity="0.5725490196078431" d="M 317.5 321 L 325 326.5 L 323 327.5 L 320.5 324 L 319 324.5 L 319.5 323 L 317.5 321 Z " /><path fill="rgb(179,228,238)" stroke="rgb(179,228,238)" stroke-width="1" opacity="0.5725490196078431" d="M 364 321 L 366 321.5 L 365 324 Q 368 322.8 367 326.5 L 367.5 328 Q 365.3 328.8 366 326.5 L 364 321 Z " /><path fill="rgb(179,228,238)" stroke="rgb(179,228,238)" stroke-width="1" opacity="0.5725490196078431" d="M 263.5 323 L 264.5 325 L 263.5 323 Z " /><path fill="rgb(179,228,238)" stroke="rgb(179,228,238)" stroke-width="1" opacity="0.5725490196078431" d="M 266.5 325 L 275 330.5 L 273.5 330 L 266.5 326 L 266.5 325 Z " /><path fill="rgb(179,228,238)" stroke="rgb(179,228,238)" stroke-width="1" opacity="0.5725490196078431" d="M 326.5 328 L 342 340.5 Q 341.3 342.8 343.5 342 L 359 357.5 L 359 359 Q 361.7 357.9 361 360.5 L 373 376.5 L 374 388.5 L 368.5 397 Q 364.5 401 356.5 401 Q 349.2 398.8 345 393.5 L 334.5 378 Q 332.3 378.8 333 376.5 L 323.5 367 L 322 367 Q 323.1 364.3 320.5 365 Q 300.2 346.3 276 331.5 L 277.5 332 L 280.5 334 L 282 333.5 L 283.5 336 Q 284.7 333.8 286 336.5 Q 285.2 339.1 288.5 338 L 296 343.5 Q 295.2 346.1 298.5 345 Q 319.6 359.4 337 377.5 L 349.5 395 Q 353 399.5 362.5 398 L 370 392.5 Q 373.3 388.8 372 380.5 L 367 370.5 L 350 350 L 348 350 Q 349.1 347.3 346.5 348 L 338 339.5 L 338 338 Q 335.3 339.1 336 336.5 Q 334 338.2 332 334.5 L 330.5 332 L 329 332.5 L 326.5 328 Z " /></svg>